<svg width="100%" height="100%" viewBox="0 0 540 311" version="1.1" xmlns="http://www.w3.org/2000/svg" xmlns:xlink="http://www.w3.org/1999/xlink" xml:space="preserve" xmlns:serif="http://www.serif.com/" style="fill-rule:evenodd;clip-rule:evenodd;stroke-linecap:round;stroke-linejoin:round;stroke-miterlimit:1.5;background-color:black">
<style>

            .flowline-2 {
              animation: dash-flowline-2 1s linear infinite;
            }
            @keyframes dash-flowline-2 {
              from {
                stroke-dashoffset: 0;
              }
              to {
                stroke-dashoffset: 2;
              }
            }
          
            .flowline-4 {
              animation: dash-flowline-4 1s linear infinite;
            }
            @keyframes dash-flowline-4 {
              from {
                stroke-dashoffset: 0;
              }
              to {
                stroke-dashoffset: 4;
              }
            }
          
            .flowline-3 {
              animation: dash-flowline-3 1s linear infinite;
            }
            @keyframes dash-flowline-3 {
              from {
                stroke-dashoffset: 0;
              }
              to {
                stroke-dashoffset: 3;
              }
            }
          
            .flowline-68 {
              animation: dash-flowline-68 1s linear infinite;
            }
            @keyframes dash-flowline-68 {
              from {
                stroke-dashoffset: 0;
              }
              to {
                stroke-dashoffset: 68;
              }
            }
          
            .flowline-5 {
              animation: dash-flowline-5 1s linear infinite;
            }
            @keyframes dash-flowline-5 {
              from {
                stroke-dashoffset: 0;
              }
              to {
                stroke-dashoffset: 5;
              }
            }
          
            .flowline-1 {
              animation: dash-flowline-1 1s linear infinite;
            }
            @keyframes dash-flowline-1 {
              from {
                stroke-dashoffset: 0;
              }
              to {
                stroke-dashoffset: 1;
              }
            }
</style>
<rect id="Artboard1" x="0" y="0" width="540" height="300.314"/><path d="M129.103,70.694l0,40.817l-66.621,66.621l0,32.335l14.358,14.357l0,14.505l-22.077,-0l0,-94.295l15.006,-15.006l3.455,3.455l8.264,-8.263l-1.518,-1.518l9.95,-9.951l-1.937,-1.937l1.473,-1.473l3.455,3.455l2.763,-2.763l-3.455,-3.455l1.243,-1.243l1.938,1.937l1.934,-1.934l-1.938,-1.937l1.382,-1.382l1.162,1.162l0.898,-0.898l-1.162,-1.162l31.427,-31.427Zm-19.978,42.032l-0.898,0.898l1.865,1.865l0.898,-0.898l-1.865,-1.865Zm-12.72,6.222l9.951,-9.95l-3.542,-3.542l-9.95,9.951l-1.518,-1.518l-8.264,8.264l6.578,6.577l8.263,-8.264l-1.518,-1.518Zm9.54,-4.843l-1.935,1.934l3.542,3.541l1.934,-1.934l-3.541,-3.541Zm-0.413,-14.402l-2.763,2.763l6.577,6.577l2.764,-2.763l-6.578,-6.577Zm7.876,-3.039l-0.898,0.898l1.865,1.865l0.898,-0.898l-1.865,-1.865Zm-21.286,38.346l9.951,-9.95l-3.542,-3.542l-9.95,9.95l-1.518,-1.517l-8.264,8.263l6.577,6.578l8.264,-8.264l-1.518,-1.518Zm9.127,-19.246l-2.763,2.763l6.577,6.578l2.763,-2.763l-6.577,-6.578Zm8.979,-17.721l-1.935,1.934l3.542,3.542l1.934,-1.935l-3.541,-3.541Z" style="fill:#003800;stroke:#004200;stroke-width:0.28px;"/><path d="M83.497,134.9c1.372,-1.373 3.601,-1.373 4.973,-0c1.373,1.372 1.373,3.601 0,4.974c-1.372,1.372 -3.601,1.372 -4.973,-0c-1.373,-1.373 -1.373,-3.602 -0,-4.974Z" style="fill:#003800;stroke:#004200;stroke-width:0.28px;"/><path d="M54.763,145.034l0,-33.082l68.892,-68.891l5.448,5.448l0,22.185l-31.427,31.427l-0.704,-0.704l-0.898,0.898l0.704,0.704l-1.382,1.382l-1.604,-1.605l-1.934,1.934l1.604,1.605l-1.243,1.243l-3.122,-3.122l-2.763,2.763l3.122,3.122l-1.473,1.473l-1.604,-1.604l-9.951,9.95l-1.518,-1.518l-8.263,8.264l3.122,3.122l-15.006,15.006Zm29.49,-37.394l9.95,-9.95l-3.541,-3.542l-9.951,9.95l-1.517,-1.518l-8.264,8.264l6.577,6.578l8.264,-8.264l-1.518,-1.518Zm13.822,-20.906l-1.934,1.935l3.542,3.541l1.934,-1.934l-3.542,-3.542Zm3.181,-1.378l-0.898,0.898l1.865,1.865l0.898,-0.898l-1.865,-1.865Zm-7.876,3.038l-2.763,2.763l6.577,6.578l2.763,-2.763l-6.577,-6.578Z" style="fill:#001300;"/><path d="M75.627,107.53c1.373,-1.373 3.602,-1.373 4.974,-0c1.373,1.372 1.373,3.601 0,4.973c-1.372,1.373 -3.601,1.373 -4.974,0c-1.372,-1.372 -1.372,-3.601 0,-4.973Z" style="fill:#003800;stroke:#004200;stroke-width:0.28px;"/><path d="M72.736,127.125c-0.567,-0.593 -0.559,-1.535 0.024,-2.118c0.583,-0.583 1.525,-0.591 2.118,-0.024c0.008,0.008 0.016,0.016 0.024,0.024c0.592,0.591 0.592,1.551 0,2.143c-0.591,0.591 -1.551,0.591 -2.142,-0c-0.008,-0.008 -0.016,-0.017 -0.024,-0.025Z" style="fill:#003800;stroke:#004200;stroke-width:0.28px;"/><path d="M214.423,27.968l-14.505,0.856l0,-22.933l127.377,-0l68.891,68.891l-5.448,5.449l-63.002,-0l-66.621,-66.621l-32.335,-0l-14.357,14.358Z" style="fill:#003800;stroke:#004200;stroke-width:0.5px;"/><path d="M410.992,244.833l-34.752,-34.753l10.534,-10.534l22.328,-0l0,17.387l5.594,5.594l42.929,-9.499c1.427,-0.316 2.918,0.119 3.952,1.153l3.828,3.828c1.075,1.075 1.499,2.639 1.115,4.11c-0.384,1.471 -1.52,2.627 -2.983,3.039l-45.73,12.861l-6.815,6.814Zm-64.509,-51.274l8.721,8.721l-3.109,3.11l-8.721,-8.721l3.109,-3.11Zm47.186,21.839c2.744,2.743 7.199,2.743 9.942,-0c2.744,-2.744 2.744,-7.199 0,-9.943c-2.743,-2.744 -7.198,-2.744 -9.942,0c-2.744,2.744 -2.744,7.199 -0,9.943Z" style="fill:#003800;stroke:#005900;stroke-width:1.44px;"/><path d="M202.656,122.344l49.148,0l-0,14.898l-15.788,15.789l-12.295,-12.295l-7.911,-0l-23.638,37.072c-0.787,1.233 -2.148,1.979 -3.61,1.979l-5.414,0c-1.52,0 -2.926,-0.806 -3.694,-2.118c-0.769,-1.311 -0.784,-2.932 -0.04,-4.258l23.242,-41.43l0,-9.637Zm81.871,-9.358l-49.147,-0l-0,-4.398l49.147,0l-0,4.398Zm-48.807,17.923c-3.88,-0 -7.031,3.15 -7.031,7.03c0,3.88 3.151,7.031 7.031,7.031c3.88,-0 7.03,-3.151 7.03,-7.031c0,-3.88 -3.15,-7.03 -7.03,-7.03Z" style="fill:#003800;stroke:#005900;stroke-width:0.34px;"/><path d="M256.664,182.675l82.006,82.006l54.495,-0l16.076,-16.076l-35.347,-35.347l0,-8.226l-16.871,-16.871l0,-5.486l-2.315,-2.315l-4.258,4.257l-62.929,0l-10.907,-10.906l-4.793,4.794l11.308,11.308l50.232,0l6.097,6.098l-6.198,6.198l0,7.439l48.052,48.052l-1.056,1.055l-47.901,-47.901l-12.666,0l-13.169,13.169l-3.82,0l-40.412,-40.411l-2.211,-0l-1.591,-1.591l-1.822,0.754" style="fill:#001e00;stroke:#004200;stroke-width:0.5px;"/><rect x="397.008" y="291.074" width="3.385" height="1.446" style="fill:#0f0;"/><rect x="409.204" y="291.074" width="3.385" height="1.446" style="fill:#0f0;"/><rect x="313.026" y="288.328" width="6.938" height="6.938" style="fill:#0f0;"/><rect x="393.083" y="280.218" width="23.159" height="23.159" style="fill:none;stroke:#0f0;stroke-width:0.5px;stroke-dasharray:0.5,1,0,0,0,0;" class="flowline-2"/><rect x="396.032" y="283.167" width="17.261" height="17.261" style="fill:none;stroke:#0f0;stroke-width:0.5px;"/><path d="M402.032,285.818c0.492,-0 0.892,0.399 0.892,0.891l-0,2.203c-0,0.493 -0.4,0.892 -0.892,0.892l-2.203,0c-0.493,0 -0.892,-0.399 -0.892,-0.892l0,-2.203c0,-0.492 0.399,-0.891 0.892,-0.891l2.203,-0Zm3.986,3.986c0.493,0 0.892,0.399 0.892,0.892l0,2.203c0,0.492 -0.399,0.892 -0.892,0.892l-2.203,-0c-0.492,-0 -0.891,-0.4 -0.891,-0.892l-0,-2.203c-0,-0.493 0.399,-0.892 0.891,-0.892l2.203,0Zm3.987,3.987c0.492,-0 0.892,0.399 0.892,0.891l-0,2.203c-0,0.493 -0.4,0.892 -0.892,0.892l-2.203,0c-0.493,0 -0.892,-0.399 -0.892,-0.892l0,-2.203c0,-0.492 0.399,-0.891 0.892,-0.891l2.203,-0Zm-2.203,-7.973l2.203,-0c0.492,-0 0.892,0.399 0.892,0.891l-0,2.203c-0,0.493 -0.4,0.892 -0.892,0.892l-2.203,0c-0.493,0 -0.892,-0.399 -0.892,-0.892l0,-2.203c0,-0.492 0.399,-0.891 0.892,-0.891Zm-7.973,7.973l2.203,-0c0.492,-0 0.892,0.399 0.892,0.891l-0,2.203c-0,0.493 -0.4,0.892 -0.892,0.892l-2.203,0c-0.493,0 -0.892,-0.399 -0.892,-0.892l0,-2.203c0,-0.492 0.399,-0.891 0.892,-0.891Z" style="fill:#0f0;"/><path d="M471.753,220.528l0.368,0.368l-51,51l-0.368,-0.369l51,-50.999Z" style="fill:#0f0;"/><path d="M475.471,224.246l0.368,0.369l-50.999,50.999l-0.368,-0.368l50.999,-51Z" style="fill:#0f0;"/><path d="M479.142,216.172l1.023,1.023l-2.394,2.394l-1.022,-1.023l2.393,-2.394Z" style="fill:#0f0;"/><path d="M487.766,207.548l1.023,1.023l-2.394,2.394l-1.023,-1.023l2.394,-2.394Z" style="fill:#0f0;"/><path d="M420.328,271.103l4.906,4.906l-4.906,4.906l-4.906,-4.906l4.906,-4.906Z" style="fill:#0f0;"/><path d="M482.673,197.288l16.376,16.377l-16.376,16.376l-16.376,-16.376l16.376,-16.377Z" style="fill:none;stroke:#0f0;stroke-width:0.5px;stroke-dasharray:0.5,1,0,0,0,0;" class="flowline-2"/><path d="M482.673,201.459l12.205,12.206l-12.205,12.205l-12.206,-12.205l12.206,-12.206Z" style="fill:none;stroke:#0f0;stroke-width:0.5px;"/><path d="M476.584,211.297c0.348,-0.349 0.913,-0.349 1.261,-0l1.558,1.557c0.348,0.349 0.348,0.913 -0,1.261l-1.558,1.558c-0.348,0.348 -0.913,0.348 -1.261,0l-1.558,-1.558c-0.348,-0.348 -0.348,-0.912 0,-1.261l1.558,-1.557Zm5.638,-0c0.348,-0.349 0.913,-0.349 1.261,-0l1.558,1.557c0.348,0.349 0.348,0.913 -0,1.261l-1.558,1.558c-0.348,0.348 -0.913,0.348 -1.261,0l-1.558,-1.558c-0.348,-0.348 -0.348,-0.912 -0,-1.261l1.558,-1.557Zm5.638,-0c0.348,-0.349 0.912,-0.349 1.261,-0l1.557,1.557c0.349,0.349 0.349,0.913 0,1.261l-1.557,1.558c-0.349,0.348 -0.913,0.348 -1.261,0l-1.558,-1.558c-0.348,-0.348 -0.348,-0.912 -0,-1.261l1.558,-1.557Zm-7.196,-4.08l1.558,-1.558c0.348,-0.348 0.913,-0.348 1.261,-0l1.558,1.558c0.348,0.348 0.348,0.912 -0,1.261l-1.558,1.557c-0.348,0.349 -0.913,0.349 -1.261,0l-1.558,-1.557c-0.348,-0.349 -0.348,-0.913 -0,-1.261Zm-0,11.275l1.558,-1.558c0.348,-0.348 0.913,-0.348 1.261,0l1.558,1.558c0.348,0.348 0.348,0.913 -0,1.261l-1.558,1.558c-0.348,0.348 -0.913,0.348 -1.261,0l-1.558,-1.558c-0.348,-0.348 -0.348,-0.913 -0,-1.261Z" style="fill:#0f0;"/><path d="M415.893,148.217l1.023,-1.022l50.999,50.999l-1.022,1.023l-51,-51Z" style="fill:#0f0;"/><path d="M359.809,217.028l1.023,-1.023l51,51l-1.023,1.022l-51,-50.999Z" style="fill:#0f0;"/><path d="M327.683,110.609l1.397,-0.375l18.667,69.667l-1.397,0.375l-18.667,-69.667Z" style="fill:#0f0;"/><path d="M406.806,66.344l1.447,-0l-0,53.349l-1.447,-0l0,-53.349Z" style="fill:#0f0;"/><path d="M410.02,142.345l1.023,-1.023l2.394,2.394l-1.023,1.022l-2.394,-2.393Z" style="fill:#0f0;"/><path d="M353.937,211.155l1.022,-1.023l2.394,2.394l-1.023,1.023l-2.393,-2.394Z" style="fill:#0f0;"/><rect x="243.273" y="204.889" width="3.385" height="1.446" style="fill:#0f0;"/><path d="M326.217,102.981l0.318,-0.085l0.587,2.191l-0.318,0.085l-0.587,-2.191Z" style="fill:#0f0;"/><path d="M401.397,133.721l1.022,-1.023l2.394,2.394l-1.023,1.023l-2.393,-2.394Z" style="fill:#0f0;"/><path d="M345.313,202.531l1.023,-1.022l2.393,2.393l-1.022,1.023l-2.394,-2.394Z" style="fill:#0f0;"/><rect x="231.077" y="204.889" width="3.385" height="1.446" style="fill:#0f0;"/><path d="M323.06,91.201l0.319,-0.085l0.587,2.191l-0.318,0.085l-0.588,-2.191Z" style="fill:#0f0;"/><path d="M464.951,201.159l4.906,-4.906l4.906,4.906l-4.906,4.906l-4.906,-4.906Z" style="fill:#0f0;"/><path d="M408.867,269.969l4.906,-4.906l4.906,4.906l-4.906,4.906l-4.906,-4.906Z" style="fill:#0f0;"/><rect x="323.703" y="202.143" width="6.938" height="6.938" style="fill:#0f0;"/><path d="M343.697,180.986l6.702,-1.796l1.796,6.702l-6.702,1.796l-1.796,-6.702Z" style="fill:#0f0;"/><path d="M404.06,109.201l6.938,-0l0,6.938l-6.938,-0l0,-6.938Z" style="fill:#0f0;"/><path d="M391.137,138.814l16.376,-16.376l16.376,16.376l-16.376,16.376l-16.376,-16.376Z" style="fill:none;stroke:#0f0;stroke-width:0.5px;stroke-dasharray:0.5,1,0,0,0,0;" class="flowline-2"/><path d="M335.053,207.625l16.376,-16.376l16.376,16.376l-16.376,16.376l-16.376,-16.376Z" style="fill:none;stroke:#0f0;stroke-width:0.5px;stroke-dasharray:0.5,1,0,0,0,0;" class="flowline-2"/><path d="M227.424,193.559l-0,23.16c7.272,5.66 14.97,5.941 23.159,-0l0,-15.536c0,-2.022 -0.803,-3.961 -2.233,-5.391c-1.429,-1.43 -3.368,-2.233 -5.39,-2.233l-15.536,0Z" style="fill:none;stroke:#0f0;stroke-width:0.5px;stroke-dasharray:0.5,1,0,0,0,0;" class="flowline-2"/><path d="M310.944,90.087l22.371,-5.994l5.994,22.37l-22.37,5.994l-5.995,-22.37Z" style="fill:none;stroke:#0f0;stroke-width:0.5px;stroke-dasharray:0.5,1,0,0,0,0;" class="flowline-2"/><path d="M395.95,42.189l23.159,0l0,23.159l-23.159,0l-0,-23.159Z" style="fill:none;stroke:#0f0;stroke-width:0.5px;stroke-dasharray:0.5,1,0,0,0,0;" class="flowline-2"/><path d="M395.307,138.814l12.206,-12.205l12.205,12.205l-12.205,12.206l-12.206,-12.206Z" style="fill:none;stroke:#0f0;stroke-width:0.5px;"/><path d="M339.224,207.625l12.205,-12.206l12.205,12.206l-12.205,12.205l-12.205,-12.205Z" style="fill:none;stroke:#0f0;stroke-width:0.5px;"/><rect x="230.373" y="196.982" width="17.261" height="17.261" style="fill:none;stroke:#0f0;stroke-width:0.5px;"/><path d="M314.557,92.173l16.672,-4.468l4.468,16.673l-16.673,4.467l-4.467,-16.672Z" style="fill:none;stroke:#0f0;stroke-width:0.5px;"/><path d="M398.899,45.138l17.261,0l-0,17.261l-17.261,0l-0,-17.261Z" style="fill:none;stroke:#0f0;stroke-width:0.5px;"/><path d="M405.145,144.903c-0.348,-0.348 -0.348,-0.913 -0,-1.261l1.558,-1.558c0.348,-0.348 0.912,-0.348 1.261,0l1.557,1.558c0.349,0.348 0.349,0.913 0,1.261l-1.557,1.558c-0.349,0.348 -0.913,0.348 -1.261,-0l-1.558,-1.558Zm-0,-5.638c-0.348,-0.348 -0.348,-0.913 -0,-1.261l1.558,-1.558c0.348,-0.348 0.912,-0.348 1.261,0l1.557,1.558c0.349,0.348 0.349,0.913 0,1.261l-1.557,1.558c-0.349,0.348 -0.913,0.348 -1.261,0l-1.558,-1.558Zm-0,-5.638c-0.348,-0.348 -0.348,-0.912 -0,-1.261l1.558,-1.557c0.348,-0.349 0.912,-0.349 1.261,-0l1.557,1.557c0.349,0.349 0.349,0.913 0,1.261l-1.557,1.558c-0.349,0.348 -0.913,0.348 -1.261,0l-1.558,-1.558Zm-4.08,7.196l-1.558,-1.558c-0.348,-0.348 -0.348,-0.913 -0,-1.261l1.558,-1.558c0.348,-0.348 0.913,-0.348 1.261,0l1.558,1.558c0.348,0.348 0.348,0.913 -0,1.261l-1.558,1.558c-0.348,0.348 -0.913,0.348 -1.261,0Zm11.275,0l-1.557,-1.558c-0.349,-0.348 -0.349,-0.913 -0,-1.261l1.557,-1.558c0.349,-0.348 0.913,-0.348 1.261,0l1.558,1.558c0.348,0.348 0.348,0.913 0,1.261l-1.558,1.558c-0.348,0.348 -0.912,0.348 -1.261,0Z" style="fill:#0f0;"/><path d="M349.061,213.713c-0.348,-0.348 -0.348,-0.912 0,-1.261l1.558,-1.557c0.348,-0.349 0.913,-0.349 1.261,-0l1.558,1.557c0.348,0.349 0.348,0.913 -0,1.261l-1.558,1.558c-0.348,0.348 -0.913,0.348 -1.261,0l-1.558,-1.558Zm0,-5.637c-0.348,-0.349 -0.348,-0.913 0,-1.261l1.558,-1.558c0.348,-0.348 0.913,-0.348 1.261,-0l1.558,1.558c0.348,0.348 0.348,0.912 -0,1.261l-1.558,1.557c-0.348,0.349 -0.913,0.349 -1.261,0l-1.558,-1.557Zm0,-5.638c-0.348,-0.348 -0.348,-0.913 0,-1.261l1.558,-1.558c0.348,-0.348 0.913,-0.348 1.261,-0l1.558,1.558c0.348,0.348 0.348,0.913 -0,1.261l-1.558,1.558c-0.348,0.348 -0.913,0.348 -1.261,-0l-1.558,-1.558Zm-4.08,7.195l-1.558,-1.557c-0.348,-0.349 -0.348,-0.913 0,-1.261l1.558,-1.558c0.348,-0.348 0.913,-0.348 1.261,-0l1.558,1.558c0.348,0.348 0.348,0.912 -0,1.261l-1.558,1.557c-0.348,0.349 -0.913,0.349 -1.261,0Zm11.276,0l-1.558,-1.557c-0.348,-0.349 -0.348,-0.913 -0,-1.261l1.558,-1.558c0.348,-0.348 0.912,-0.348 1.261,-0l1.557,1.558c0.349,0.348 0.349,0.912 0,1.261l-1.557,1.557c-0.349,0.349 -0.913,0.349 -1.261,0Z" style="fill:#0f0;"/><path d="M215.691,209.272l0,1.428c0,0.493 -0.399,0.892 -0.892,0.892l-2.203,0c-0.492,0 -0.891,-0.399 -0.891,-0.892l-0,-2.203c-0,-0.492 0.399,-0.891 0.891,-0.891l1.194,-0c0.139,0.931 0.935,1.649 1.901,1.666Zm0,-3.915l0,-0.846c0,-0.493 0.399,-0.892 0.892,-0.892l2.203,0c0.492,0 0.892,0.399 0.892,0.892l-0,2.203c-0,0.492 -0.4,0.892 -0.892,0.892l-1.123,-0c0.014,-0.095 0.021,-0.192 0.021,-0.291c0,-1.081 -0.877,-1.958 -1.957,-1.958c-0.012,-0 -0.024,-0 -0.036,0Zm4.878,6.235c-0.492,0 -0.891,-0.399 -0.891,-0.892l-0,-2.203c-0,-0.492 0.399,-0.891 0.891,-0.891l2.203,-0c0.493,-0 0.892,0.399 0.892,0.891l0,2.203c0,0.493 -0.399,0.892 -0.892,0.892l-2.203,0Zm-7.973,-7.973c-0.492,0 -0.891,-0.399 -0.891,-0.892l-0,-2.203c-0,-0.492 0.399,-0.891 0.891,-0.891l2.203,-0c0.493,-0 0.892,0.399 0.892,0.891l0,2.203c0,0.493 -0.399,0.892 -0.892,0.892l-2.203,0Zm10.176,0l-2.203,0c-0.492,0 -0.891,-0.399 -0.891,-0.892l-0,-2.203c-0,-0.492 0.399,-0.891 0.891,-0.891l2.203,-0c0.493,-0 0.892,0.399 0.892,0.891l0,2.203c0,0.493 -0.399,0.892 -0.892,0.892Z" style="fill:none;stroke:#0f0;stroke-width:0.5px;"/><path d="M328.842,102.284l-0.57,-2.128c-0.047,-0.178 0.058,-0.36 0.236,-0.408l2.128,-0.57c0.178,-0.048 0.36,0.058 0.408,0.236l0.57,2.128c0.048,0.177 -0.058,0.36 -0.235,0.408l-2.128,0.57c-0.178,0.048 -0.361,-0.058 -0.409,-0.236Zm-8.271,-0.064c-0.048,-0.178 0.058,-0.361 0.236,-0.408l2.128,-0.57c0.177,-0.048 0.36,0.057 0.408,0.235l0.57,2.128c0.048,0.178 -0.058,0.361 -0.236,0.408l-2.128,0.57c-0.177,0.048 -0.36,-0.057 -0.408,-0.235l-0.57,-2.128Zm2.819,-4.883c-0.048,-0.177 0.058,-0.36 0.235,-0.408l2.128,-0.57c0.178,-0.048 0.361,0.058 0.409,0.236l0.57,2.128c0.047,0.177 -0.058,0.36 -0.236,0.408l-2.128,0.57c-0.178,0.048 -0.36,-0.058 -0.408,-0.236l-0.57,-2.128Zm2.819,-4.882c-0.048,-0.178 0.058,-0.361 0.235,-0.408l2.128,-0.57c0.178,-0.048 0.361,0.057 0.408,0.235l0.571,2.128c0.047,0.178 -0.058,0.361 -0.236,0.408l-2.128,0.571c-0.178,0.047 -0.36,-0.058 -0.408,-0.236l-0.57,-2.128Zm-7.131,4.191l-0.571,-2.127c-0.047,-0.178 0.058,-0.361 0.236,-0.409l2.128,-0.57c0.178,-0.047 0.361,0.058 0.408,0.236l0.57,2.128c0.048,0.178 -0.058,0.36 -0.235,0.408l-2.128,0.57c-0.178,0.048 -0.361,-0.058 -0.408,-0.236Z" style="fill:#0f0;"/><path d="M405.536,52.413c0,-0.492 0.399,-0.891 0.892,-0.891l2.203,-0c0.492,-0 0.892,0.399 0.892,0.891l-0,2.203c-0,0.493 -0.4,0.892 -0.892,0.892l-2.203,0c-0.493,0 -0.892,-0.399 -0.892,-0.892l0,-2.203Zm3.987,-3.986c-0,-0.493 0.399,-0.892 0.891,-0.892l2.203,0c0.493,0 0.892,0.399 0.892,0.892l0,2.203c0,0.492 -0.399,0.892 -0.892,0.892l-2.203,-0c-0.492,-0 -0.891,-0.4 -0.891,-0.892l-0,-2.203Zm-7.973,2.203l-0,-2.203c-0,-0.493 0.399,-0.892 0.891,-0.892l2.203,0c0.493,0 0.892,0.399 0.892,0.892l0,2.203c0,0.492 -0.399,0.892 -0.892,0.892l-2.203,-0c-0.492,-0 -0.891,-0.4 -0.891,-0.892Zm7.973,7.973l-0,-2.203c-0,-0.493 0.399,-0.892 0.891,-0.892l2.203,0c0.493,0 0.892,0.399 0.892,0.892l0,2.203c0,0.492 -0.399,0.892 -0.892,0.892l-2.203,-0c-0.492,-0 -0.891,-0.4 -0.891,-0.892Z" style="fill:#0f0;"/><path d="M410.535,80.508c0,-0.192 0.156,-0.347 0.347,-0.347l0.857,-0c0.192,-0 0.347,0.155 0.347,0.347l0,0.857c0,0.191 -0.155,0.347 -0.347,0.347l-0.857,-0c-0.191,-0 -0.347,-0.156 -0.347,-0.347l0,-0.857Zm1.551,-1.551c0,-0.192 0.155,-0.347 0.347,-0.347l0.857,0c0.192,0 0.347,0.155 0.347,0.347l-0,0.857c-0,0.192 -0.155,0.347 -0.347,0.347l-0.857,-0c-0.192,-0 -0.347,-0.155 -0.347,-0.347l0,-0.857Zm1.551,-1.551c-0,-0.192 0.155,-0.347 0.347,-0.347l0.857,0c0.191,0 0.347,0.155 0.347,0.347l-0,0.857c-0,0.192 -0.156,0.347 -0.347,0.347l-0.857,0c-0.192,0 -0.347,-0.155 -0.347,-0.347l-0,-0.857Zm-3.102,0.857l0,-0.857c0,-0.192 0.156,-0.347 0.347,-0.347l0.857,0c0.192,0 0.347,0.155 0.347,0.347l0,0.857c0,0.192 -0.155,0.347 -0.347,0.347l-0.857,0c-0.191,0 -0.347,-0.155 -0.347,-0.347Zm3.102,3.102l-0,-0.857c-0,-0.192 0.155,-0.347 0.347,-0.347l0.857,-0c0.191,-0 0.347,0.155 0.347,0.347l-0,0.857c-0,0.191 -0.156,0.347 -0.347,0.347l-0.857,-0c-0.192,-0 -0.347,-0.156 -0.347,-0.347Z" style="fill:#0f0;"/><path d="M251.218,32.084l1.023,-1.023l50.999,51l-1.023,1.023l-50.999,-51Z" style="fill:#0f0;"/><path d="M300.276,85.025l4.906,-4.906l4.906,4.906l-4.906,4.906l-4.906,-4.906Z" style="fill:#0f0;"/><path d="M226.461,22.681l16.377,-16.376l16.376,16.376l-16.376,16.376l-16.377,-16.376Z" style="fill:none;stroke:#0f0;stroke-width:0.5px;stroke-dasharray:0.5,1,0,0,0,0;" class="flowline-2"/><path d="M230.632,22.681l12.206,-12.205l12.205,12.205l-12.205,12.205l-12.206,-12.205Z" style="fill:none;stroke:#0f0;stroke-width:0.5px;"/><path d="M240.47,28.77c-0.349,-0.348 -0.349,-0.913 -0,-1.261l1.557,-1.558c0.349,-0.348 0.913,-0.348 1.261,-0l1.558,1.558c0.348,0.348 0.348,0.913 0,1.261l-1.558,1.558c-0.348,0.348 -0.912,0.348 -1.261,-0l-1.557,-1.558Zm-0,-5.638c-0.349,-0.348 -0.349,-0.913 -0,-1.261l1.557,-1.558c0.349,-0.348 0.913,-0.348 1.261,0l1.558,1.558c0.348,0.348 0.348,0.913 0,1.261l-1.558,1.558c-0.348,0.348 -0.912,0.348 -1.261,-0l-1.557,-1.558Zm-0,-5.638c-0.349,-0.348 -0.349,-0.913 -0,-1.261l1.557,-1.558c0.349,-0.348 0.913,-0.348 1.261,0l1.558,1.558c0.348,0.348 0.348,0.913 0,1.261l-1.558,1.558c-0.348,0.348 -0.912,0.348 -1.261,0l-1.557,-1.558Zm-4.08,7.196l-1.558,-1.558c-0.348,-0.348 -0.348,-0.913 -0,-1.261l1.558,-1.558c0.348,-0.348 0.912,-0.348 1.261,0l1.557,1.558c0.349,0.348 0.349,0.913 0,1.261l-1.557,1.558c-0.349,0.348 -0.913,0.348 -1.261,-0Zm11.275,-0l-1.558,-1.558c-0.348,-0.348 -0.348,-0.913 0,-1.261l1.558,-1.558c0.348,-0.348 0.913,-0.348 1.261,0l1.558,1.558c0.348,0.348 0.348,0.913 0,1.261l-1.558,1.558c-0.348,0.348 -0.913,0.348 -1.261,-0Z" style="fill:none;stroke:#0f0;stroke-width:0.5px;"/><rect x="120.848" y="11.188" width="23.159" height="23.159" style="fill:none;stroke:#0f0;stroke-width:0.5px;stroke-dasharray:0.5,1,0,0,0,0;" class="flowline-2"/><rect x="123.798" y="14.138" width="17.261" height="17.261" style="fill:none;stroke:#0f0;stroke-width:0.5px;"/><path d="M133.37,116.267l-1.446,-0l-0,-72.125l1.446,0l0,72.125Z" style="fill:#0f0;"/><path d="M221.684,107.267l-1.447,0l0,-72.124l1.447,0l-0,72.124Z" style="fill:#0f0;"/><path d="M257.759,158.463l-1.023,1.023l-18.104,-18.104l1.023,-1.023l18.104,18.104Z" style="fill:#0f0;"/><path d="M169.151,205.234l-1.252,-0.723l36.062,-62.462l1.252,0.724l-36.062,62.461Z" style="fill:#0f0;"/><path d="M81.902,180.585l-1.023,-1.022l37.724,-37.724l1.023,1.023l-37.724,37.723Z" style="fill:#0f0;"/><path d="M133.37,124.572l-1.446,-0l-0,-3.385l1.446,-0l0,3.385Z" style="fill:#0f0;"/><path d="M221.684,115.573l-1.447,-0l0,-3.386l1.447,0l-0,3.386Z" style="fill:#0f0;"/><path d="M262.064,162.768l-1.023,1.023l-2.394,-2.394l1.023,-1.022l2.394,2.393Z" style="fill:#0f0;"/><path d="M164.999,212.427l-1.253,-0.724l1.693,-2.931l1.252,0.723l-1.692,2.932Z" style="fill:#0f0;"/><path d="M76.029,186.458l-1.022,-1.023l2.393,-2.393l1.023,1.022l-2.394,2.394Z" style="fill:#0f0;"/><path d="M133.37,136.768l-1.446,-0l-0,-3.386l1.446,0l0,3.386Z" style="fill:#0f0;"/><path d="M221.684,127.769l-1.447,-0l0,-3.386l1.447,0l-0,3.386Z" style="fill:#0f0;"/><path d="M270.688,171.392l-1.023,1.023l-2.394,-2.394l1.023,-1.022l2.394,2.393Z" style="fill:#0f0;"/><path d="M158.901,222.988l-1.253,-0.723l1.693,-2.931l1.252,0.723l-1.692,2.931Z" style="fill:#0f0;"/><path d="M67.406,195.082l-1.023,-1.023l2.394,-2.394l1.022,1.023l-2.393,2.394Z" style="fill:#0f0;"/><path d="M136.116,44.142l-6.938,0l-0,-6.938l6.938,0l0,6.938Z" style="fill:#0f0;"/><path d="M224.43,35.143l-6.939,0l0,-6.938l6.939,-0l-0,6.938Z" style="fill:#0f0;"/><path d="M241.596,138.418l-4.906,4.906l-4.906,-4.906l4.906,-4.906l4.906,4.906Z" style="fill:#0f0;"/><path d="M207.591,144.145l-6.008,-3.469l3.469,-6.008l6.008,3.469l-3.469,6.008Z" style="fill:#0f0;"/><path d="M114.148,152.222l-4.906,-4.906l4.906,-4.906l4.906,4.906l-4.906,4.906Z" style="fill:#0f0;"/><path d="M144.227,140.421l-23.16,-0l0,-23.159l23.16,-0l-0,23.159Z" style="fill:none;stroke:#0f0;stroke-width:0.5px;stroke-dasharray:0.5,1,0,0,0,0;" class="flowline-2"/><path d="M232.54,131.422l-23.159,-0l-0,-23.16l23.159,0l0,23.16Z" style="fill:none;stroke:#0f0;stroke-width:0.5px;stroke-dasharray:0.5,1,0,0,0,0;" class="flowline-2"/><path d="M280.947,166.299l-16.376,16.376l-16.376,-16.376l16.376,-16.376l16.376,16.376Z" style="fill:none;stroke:#0f0;stroke-width:0.5px;stroke-dasharray:0.5,1,0,0,0,0;" class="flowline-2"/><path d="M166.476,231.58l-20.057,-11.579l11.58,-20.057l20.057,11.58l-11.58,20.056Z" style="fill:none;stroke:#0f0;stroke-width:0.5px;stroke-dasharray:0.5,1,0,0,0,0;" class="flowline-2"/><path d="M72.499,205.342l-16.376,-16.376l16.376,-16.376l16.376,16.376l-16.376,16.376Z" style="fill:none;stroke:#0f0;stroke-width:0.5px;stroke-dasharray:0.5,1,0,0,0,0;" class="flowline-2"/><path d="M141.277,137.472l-17.26,-0l-0,-17.261l17.26,-0l0,17.261Z" style="fill:none;stroke:#0f0;stroke-width:0.5px;"/><path d="M229.591,128.473l-17.261,-0l0,-17.261l17.261,-0l-0,17.261Z" style="fill:none;stroke:#0f0;stroke-width:0.5px;"/><path d="M276.777,166.299l-12.206,12.205l-12.205,-12.205l12.205,-12.205l12.206,12.205Z" style="fill:none;stroke:#0f0;stroke-width:0.5px;"/><path d="M165.396,227.552l-14.948,-8.631l8.631,-14.948l14.948,8.63l-8.631,14.949Z" style="fill:none;stroke:#0f0;stroke-width:0.5px;"/><path d="M72.499,201.171l-12.205,-12.205l12.205,-12.206l12.205,12.206l-12.205,12.205Z" style="fill:none;stroke:#0f0;stroke-width:0.5px;"/><path d="M138.627,126.21c-0,0.493 -0.399,0.892 -0.892,0.892l-2.203,0c-0.492,0 -0.892,-0.399 -0.892,-0.892l0,-2.203c0,-0.492 0.4,-0.891 0.892,-0.892l2.203,0c0.493,0.001 0.892,0.4 0.892,0.892l-0,2.203Zm-3.987,3.987c0,0.492 -0.399,0.892 -0.891,0.892l-2.204,-0c-0.492,-0 -0.891,-0.4 -0.891,-0.892l-0,-2.203c-0,-0.493 0.399,-0.892 0.891,-0.892l2.204,0c0.492,0 0.891,0.399 0.891,0.892l0,2.203Zm-3.986,3.986c-0,0.493 -0.399,0.892 -0.892,0.892l-2.203,0c-0.493,0 -0.892,-0.399 -0.892,-0.892l0,-2.203c0,-0.492 0.399,-0.891 0.892,-0.891l2.203,-0c0.493,-0 0.892,0.399 0.892,0.891l-0,2.203Zm7.973,-2.203l-0,2.203c-0,0.493 -0.399,0.892 -0.892,0.892l-2.203,0c-0.492,0 -0.892,-0.399 -0.892,-0.892l0,-2.203c0,-0.492 0.4,-0.891 0.892,-0.891l2.203,-0c0.493,-0 0.892,0.399 0.892,0.891Zm-7.973,-7.973l-0,2.203c-0,0.493 -0.399,0.892 -0.892,0.892l-2.203,0c-0.493,0 -0.892,-0.399 -0.892,-0.892l0,-2.203c0,-0.492 0.399,-0.891 0.892,-0.892l2.203,0c0.493,0.001 0.892,0.4 0.892,0.892Z" style="fill:#0f0;"/><path d="M226.94,117.211c0,0.493 -0.399,0.892 -0.891,0.892l-2.204,-0c-0.492,-0 -0.891,-0.399 -0.891,-0.892l-0,-2.203c-0,-0.492 0.399,-0.892 0.891,-0.892l2.204,0c0.492,0 0.891,0.4 0.891,0.892l0,2.203Zm-3.986,3.987c-0,0.492 -0.399,0.891 -0.892,0.891l-2.203,0c-0.492,0 -0.892,-0.399 -0.892,-0.891l0,-2.203c0,-0.493 0.4,-0.892 0.892,-0.892l2.203,-0c0.493,-0 0.892,0.399 0.892,0.892l-0,2.203Zm-3.987,3.986c0,0.493 -0.399,0.892 -0.891,0.892l-2.204,-0c-0.492,-0 -0.891,-0.399 -0.891,-0.892l-0,-2.203c-0,-0.492 0.399,-0.892 0.891,-0.892l2.204,0c0.492,0 0.891,0.4 0.891,0.892l0,2.203Zm7.973,-2.203l0,2.203c0,0.493 -0.399,0.892 -0.891,0.892l-2.204,-0c-0.492,-0 -0.891,-0.399 -0.891,-0.892l-0,-2.203c-0,-0.492 0.399,-0.892 0.891,-0.892l2.204,0c0.492,0 0.891,0.4 0.891,0.892Zm-7.973,-7.973l0,2.203c0,0.493 -0.399,0.892 -0.891,0.892l-2.204,-0c-0.492,-0 -0.891,-0.399 -0.891,-0.892l-0,-2.203c-0,-0.492 0.399,-0.892 0.891,-0.892l2.204,0c0.492,0 0.891,0.4 0.891,0.892Z" style="fill:#0f0;"/><path d="M266.939,160.21c0.349,0.348 0.349,0.913 0,1.261l-1.557,1.558c-0.349,0.348 -0.913,0.348 -1.262,-0l-1.557,-1.558c-0.349,-0.348 -0.349,-0.913 -0,-1.261l1.557,-1.558c0.349,-0.348 0.913,-0.348 1.262,0l1.557,1.558Zm0,5.638c0.349,0.348 0.349,0.913 0,1.261l-1.557,1.558c-0.349,0.348 -0.913,0.348 -1.262,-0l-1.557,-1.558c-0.349,-0.348 -0.349,-0.913 -0,-1.261l1.557,-1.558c0.349,-0.348 0.913,-0.348 1.262,0l1.557,1.558Zm0,5.638c0.349,0.348 0.349,0.913 0,1.261l-1.557,1.558c-0.349,0.348 -0.913,0.348 -1.262,-0l-1.557,-1.558c-0.349,-0.348 -0.349,-0.913 -0,-1.261l1.557,-1.558c0.349,-0.348 0.913,-0.348 1.262,-0l1.557,1.558Zm4.08,-7.196l1.558,1.558c0.348,0.348 0.348,0.913 0,1.261l-1.558,1.558c-0.348,0.348 -0.913,0.348 -1.261,-0l-1.558,-1.558c-0.348,-0.348 -0.348,-0.913 0,-1.261l1.558,-1.558c0.348,-0.348 0.913,-0.348 1.261,0Zm-11.275,0l1.558,1.558c0.348,0.348 0.348,0.913 -0,1.261l-1.558,1.558c-0.348,0.348 -0.913,0.348 -1.261,-0l-1.558,-1.558c-0.348,-0.348 -0.348,-0.913 -0,-1.261l1.558,-1.558c0.348,-0.348 0.913,-0.348 1.261,0Z" style="fill:#0f0;"/><path d="M73.307,191.193c-0.168,-0 -0.305,-0.137 -0.305,-0.306l-0,-0.754c-0,-0.169 0.137,-0.305 0.305,-0.305l0.754,-0c0.169,-0 0.306,0.136 0.306,0.305l-0,0.754c-0,0.169 -0.137,0.306 -0.306,0.306l-0.754,-0Zm-1.365,-1.365c-0.168,-0 -0.305,-0.137 -0.305,-0.306l-0,-0.754c-0,-0.168 0.137,-0.305 0.305,-0.305l0.755,-0c0.168,-0 0.305,0.137 0.305,0.305l-0,0.754c-0,0.169 -0.137,0.306 -0.305,0.306l-0.755,-0Zm-1.365,-1.365c-0.168,-0 -0.305,-0.137 -0.305,-0.306l-0,-0.754c-0,-0.168 0.137,-0.305 0.305,-0.305l0.755,-0c0.168,-0 0.305,0.137 0.305,0.305l-0,0.754c-0,0.169 -0.137,0.306 -0.305,0.306l-0.755,-0Zm0.755,2.73l-0.755,-0c-0.168,-0 -0.305,-0.137 -0.305,-0.306l-0,-0.754c-0,-0.169 0.137,-0.305 0.305,-0.305l0.755,-0c0.168,-0 0.305,0.136 0.305,0.305l-0,0.754c-0,0.169 -0.137,0.306 -0.305,0.306Zm2.729,-2.73l-0.754,-0c-0.168,-0 -0.305,-0.137 -0.305,-0.306l-0,-0.754c-0,-0.168 0.137,-0.305 0.305,-0.305l0.754,-0c0.169,-0 0.306,0.137 0.306,0.305l-0,0.754c-0,0.169 -0.137,0.306 -0.306,0.306Z" style="fill:#0f0;"/><path d="M143.137,185.583l113.527,0l86.479,86.479l63.897,0l6.635,6.635l-70.336,0l-9.223,9.224l-7.966,-0l-61.399,-61.399l-72.133,-0l-9.769,9.222l-39.712,-0l-11.262,-11.262l0,-41.807l11.262,-0l-0,2.908Z" style="fill:none;stroke:#003b00;stroke-width:0.5px;"/><path d="M337.528,287.921l7.107,-7.107l45.758,0l0,22.934l-127.376,-0l-68.891,-68.892l5.448,-5.448l63.001,-0l66.621,66.621l32.335,-0l8.286,-8.286l-32.289,0.178Z" style="fill:#003800;stroke:#004200;stroke-width:0.5px;"/><circle cx="150.944" cy="80.204" r="10.377" style="fill:#003800;"/><circle cx="138.081" cy="187.967" r="3.21" style="fill:#003800;"/><circle cx="308.309" cy="292.028" r="3.21" style="fill:#003800;"/><circle cx="330.691" cy="282.407" r="3.21" style="fill:#003800;"/><circle cx="303.989" cy="215.062" r="3.21" style="fill:#003800;"/><circle cx="327.55" cy="196.802" r="3.21" style="fill:#003800;"/><circle cx="343.697" cy="109.332" r="3.21" style="fill:#003800;"/><circle cx="391.933" cy="37.797" r="3.21" style="fill:#003800;"/><circle cx="150.944" cy="80.204" r="6.869" style="fill:#007800;"/><ellipse cx="150.944" cy="80.485" rx="51.475" ry="0.281" style="fill:#0f0;"/><path d="M151.225,80.485c0,28.41 -0.126,51.475 -0.281,51.475c-0.155,0 -0.28,-23.065 -0.28,-51.475c-0,-28.41 0.125,-51.475 0.28,-51.475c0.155,-0 0.281,23.065 0.281,51.475Z" style="fill:#0f0;"/><path d="M305.282,120.229c9.697,1.793 17.051,10.302 17.051,20.514c-0,11.513 -9.348,20.861 -20.861,20.861c-11.514,-0 -20.862,-9.348 -20.862,-20.861c0,-10.212 7.354,-18.721 17.051,-20.514l0,12.357l7.621,0l0,-12.357Zm-0.921,15.205l-5.779,0l0,4.021l5.779,0l-0,-4.021Z" style="fill:#003800;stroke:#005900;stroke-width:0.34px;"/><path d="M306.293,121.483c8.629,2.156 15.029,9.967 15.029,19.26c-0,10.955 -8.895,19.85 -19.85,19.85c-10.956,-0 -19.85,-8.895 -19.85,-19.85c-0,-9.293 6.399,-17.104 15.028,-19.26c-0,0 -0,11.103 -0,11.103c-0,0.559 0.453,1.011 1.011,1.011l7.621,0c0.559,0 1.011,-0.452 1.011,-1.011l0,-11.103Zm-0.921,13.951c-0,-0.558 -0.453,-1.011 -1.011,-1.011l-5.779,0c-0.558,0 -1.011,0.453 -1.011,1.011l0,4.021c0,0.559 0.453,1.012 1.011,1.012l5.779,-0c0.558,-0 1.011,-0.453 1.011,-1.012l-0,-4.021Z" style="fill:none;stroke:#000;stroke-width:0.34px;"/><path d="M261.195,26.647l-4.786,4.787l-1.263,-1.263l4.787,-4.786l1.262,1.262Z" style="fill:#003800;stroke:#005900;stroke-width:0.76px;"/><path d="M304.162,69.614l-4.787,4.786l-1.263,-1.263l4.787,-4.786l1.263,1.263Z" style="fill:#003800;stroke:#005900;stroke-width:0.76px;"/><path d="M417.387,70.137l-6.769,-0l-0,-1.786l6.769,-0l-0,1.786Z" style="fill:#003800;stroke:#005900;stroke-width:0.76px;"/><rect x="299.755" y="123.539" width="3.433" height="4.859" style="fill:#003800;stroke:#005900;stroke-width:0.76px;"/><rect x="297.661" y="111.894" width="7.621" height="1.843" style="fill:#003800;stroke:#005900;stroke-width:0.34px;"/><rect x="299.755" y="97.486" width="3.433" height="9.801" style="fill:#003800;stroke:#005900;stroke-width:0.34px;"/><path d="M267.248,28.412l-6.931,6.93l-2.427,-2.427l6.93,-6.931l2.428,2.428Z" style="fill:#003800;stroke:#005900;stroke-width:0.76px;"/><path d="M310.214,71.378l-6.931,6.93l-2.427,-2.427l6.93,-6.93l2.428,2.427Z" style="fill:#003800;stroke:#005900;stroke-width:0.76px;"/><path d="M420.419,75.664l-9.801,-0l-0,-3.433l9.801,-0l-0,3.433Z" style="fill:#003800;stroke:#005900;stroke-width:0.76px;"/><path d="M270.621,23.853l-1.123,1.123l-1.242,-1.242l1.123,-1.123l1.242,1.242Z" style="fill:#003800;stroke:#005900;stroke-width:0.76px;"/><path d="M459.059,74.826l-34.619,-0l-0,-1.757l34.619,-0l-0,1.757Z" style="fill:#003800;stroke:#005900;stroke-width:0.76px;"/><path d="M466.459,83.262l-47.091,47.092l-1.243,-1.243l47.092,-47.091l1.242,1.242Z" style="fill:#003800;stroke:#005900;stroke-width:0.28px;"/><path d="M469.125,85.928l-47.091,47.092l-1.242,-1.243l47.091,-47.091l1.242,1.242Z" style="fill:#003800;stroke:#005900;stroke-width:0.28px;"/><path d="M471.791,88.595l-34.433,34.433l-1.243,-1.242l34.434,-34.434l1.242,1.243Z" style="fill:#003800;stroke:#005900;stroke-width:0.28px;"/><path d="M474.457,91.261l-36.478,36.478l-1.243,-1.243l36.479,-36.478l1.242,1.243Z" style="fill:#003800;stroke:#005900;stroke-width:0.28px;"/><path d="M227.138,42.665l7.363,-0l54.948,54.947l0,7.772l-64.492,0l-0,-43.92l11.998,-0l0,-4.021l-9.544,-0l-0.273,-14.778Z" style="fill:#010;stroke:#005900;stroke-width:0.76px;"/><rect x="274.345" y="100.596" width="3.433" height="2.367" style="stroke:#005900;stroke-width:0.76px;"/><rect x="229.051" y="100.596" width="3.433" height="2.367" style="stroke:#005900;stroke-width:0.76px;"/><path d="M235.141,101.779l37.307,-0" style="fill:none;stroke:#005900;stroke-width:0.76px;stroke-dasharray:2.28,1.52,0,0,0,0;" class="flowline-4"/><path d="M341.842,23.142l26.38,26.38" style="fill:none;stroke:#000;stroke-width:0.76px;stroke-dasharray:2.28,1.52,0,0,0,0;" class="flowline-4"/><path d="M57.249,112.478l12.819,-12.819" style="fill:none;stroke:#000;stroke-width:0.76px;stroke-dasharray:2.28,1.52,0,0,0,0;" class="flowline-4"/><path d="M249.681,60.835l26.38,26.379" style="fill:none;stroke:#005900;stroke-width:0.76px;stroke-dasharray:2.28,1.52,0,0,0,0;" class="flowline-4"/><path d="M353.175,233.322l26.38,26.379" style="fill:none;stroke:#005900;stroke-width:0.76px;stroke-dasharray:2.28,1.52,0,0,0,0;" class="flowline-4"/><path d="M392.135,233.322l6.9,6.899" style="fill:none;stroke:#005900;stroke-width:0.76px;stroke-dasharray:2.28,1.52,0,0,0,0;" class="flowline-4"/><path d="M411.158,199.15l0,9.758" style="fill:none;stroke:#005900;stroke-width:0.76px;stroke-dasharray:2.28,1.52,0,0,0,0;" class="flowline-4"/><path d="M229.051,64.473l0,6.925" style="fill:none;stroke:#005900;stroke-width:0.76px;stroke-dasharray:2.28,1.52,0,0,0,0;" class="flowline-4"/><ellipse cx="150.944" cy="80.264" rx="51.475" ry="0.06" style="fill:#fff;"/><path d="M301.082,141.752l7.662,4.449l0,8.899l-7.662,4.449l-7.662,-4.449l-0,-8.899l7.662,-4.449Z" style="fill:none;stroke:#003100;stroke-width:0.76px;stroke-dasharray:2.28,1.52,0,0,0,0;" class="flowline-4"/><path d="M301.082,144.254l5.982,3.198l-0,6.397l-5.982,3.198l-5.982,-3.198l0,-6.397l5.982,-3.198Z" style="fill:none;stroke:#003100;stroke-width:0.76px;stroke-dasharray:2.28,1.52,0,0,0,0;" class="flowline-4"/><path d="M99.469,188.6l-7.444,0l-7.324,-7.324l27.971,-27.97l18.465,18.465l6.641,-6.641l-12.076,-12.076l-0,-3.131l-4.838,-4.838l0,-2.426l73.527,0l-16.34,27.675l-23.796,0l-5.736,-5.735l-1.73,1.73l5.685,5.684l-0,12.381l-7.893,-0l0,-3.491l-28.522,0l-0,1.772l14.161,-0l0,7.004l-8.377,0l-3.092,3.092l-8.576,-0l-4.232,-4.232l-6.474,0.061Z" style="fill:none;stroke:#005900;stroke-width:0.76px;stroke-dasharray:2.28,1.52,0,0,0,0;" class="flowline-4"/><path d="M123.89,144.254l67.94,-0l-14.585,24.721l-14.585,-0l-22.491,-22.49l-9.796,-0l-0,6.159l-1.621,0l0,-6.233l-2.368,0l-2.494,-2.157Z" style="fill:none;stroke:#005900;stroke-width:0.76px;stroke-dasharray:2.28,1.52,0,0,0,0;" class="flowline-4"/><path d="M289.034,182.675l-10.334,-10.334l9.399,-9.4l-1.62,-1.62l-3.927,3.927l-27.862,-27.862l0,-21.504l42.322,0l1.995,1.995l4.238,-0l2.12,-2.119l22.065,-0l16.205,61.956l-4.961,4.961l-49.64,-0Z" style="fill:none;stroke:#005900;stroke-width:0.76px;stroke-dasharray:2.28,1.52,0,0,0,0;" class="flowline-4"/><path d="M308.481,182.675l29.033,-29.033" style="fill:none;stroke:#005900;stroke-width:0.76px;stroke-dasharray:2.28,1.52,0,0,0,0;" class="flowline-4"/><path d="M326.058,182.675l15.586,-15.586" style="fill:none;stroke:#005900;stroke-width:0.76px;stroke-dasharray:2.28,1.52,0,0,0,0;" class="flowline-4"/><path d="M169.532,140.917l26.009,-0l5.026,-9.791l0,-9.494l1.322,-1.323l6.098,0l-0,-30.91l-20.744,0l-17.711,17.353l-0,34.165Z" style="fill:#010;"/><path d="M172.224,138.224l0,-30.34l16.119,-15.792l16.951,0l0,25.525c0,-0 -3.405,-0 -3.405,-0c-0.714,-0 -1.399,0.283 -1.904,0.788l-1.322,1.323c-0.505,0.504 -0.789,1.189 -0.789,1.904l0,8.843l-3.978,7.749c0,0 -21.672,0 -21.672,0Z" style="fill:#003800;"/><path d="M174.418,136.03l0,-27.224l14.82,-14.52l13.862,0c0,0 0,21.137 0,21.137c0,-0 -1.211,-0 -1.211,-0c-1.296,-0 -2.539,0.514 -3.455,1.431l-1.322,1.322c-0.917,0.917 -1.432,2.159 -1.432,3.456l0,8.313l-3.124,6.085l-18.138,0Z" style="fill:none;stroke:#0f0;stroke-width:0.51px;stroke-dasharray:1.52,1.02,0,0,0,0;" class="flowline-3"/><path d="M197.332,117.946l-3.54,-3.54" style="fill:none;stroke:#0f0;stroke-width:0.51px;stroke-dasharray:1.52,1.02,0,0,0,0;" class="flowline-3"/><path d="M186.031,105.896l3.676,3.676" style="fill:none;stroke:#0f0;stroke-width:0.51px;stroke-dasharray:1.52,1.02,0,0,0,0;" class="flowline-3"/><path d="M467.775,154.28l13.768,13.768" style="fill:none;stroke:#0f0;stroke-width:0.51px;stroke-dasharray:1.52,2.03,0,0,0,0;" class="flowline-4"/><path d="M467.775,67.197l13.768,13.768" style="fill:none;stroke:#f25e0d;stroke-width:0.51px;stroke-dasharray:1.52,2.03,0,0,0,0;" class="flowline-4"/><path d="M193.656,78.595l3.676,3.677" style="fill:none;stroke:#0f0;stroke-width:0.51px;stroke-dasharray:1.52,1.02,0,0,0,0;" class="flowline-3"/><path d="M116.179,78.595l-3.676,3.677" style="fill:none;stroke:#0f0;stroke-width:0.51px;stroke-dasharray:1.52,1.02,0,0,0,0;" class="flowline-3"/><path d="M152.782,45.61l-3.676,-3.676" style="fill:none;stroke:#0f0;stroke-width:0.51px;stroke-dasharray:1.52,1.02,0,0,0,0;" class="flowline-3"/><path d="M152.782,110.912l-3.676,3.677" style="fill:none;stroke:#0f0;stroke-width:0.51px;stroke-dasharray:1.52,1.02,0,0,0,0;" class="flowline-3"/><path d="M186.031,109.572l3.676,-3.676" style="fill:none;stroke:#0f0;stroke-width:0.51px;stroke-dasharray:1.52,1.02,0,0,0,0;" class="flowline-3"/><path d="M467.775,168.048l13.768,-13.768" style="fill:none;stroke:#0f0;stroke-width:0.51px;stroke-dasharray:1.52,2.03,0,0,0,0;" class="flowline-4"/><path d="M467.775,80.965l13.768,-13.768" style="fill:none;stroke:#f25e0d;stroke-width:0.51px;stroke-dasharray:1.52,2.03,0,0,0,0;" class="flowline-4"/><path d="M470.358,161.164l8.601,0" style="fill:none;stroke:#0f0;stroke-width:0.51px;stroke-dasharray:1.52,2.03,0,0,0,0;" class="flowline-4"/><path d="M470.358,74.081l8.601,-0" style="fill:none;stroke:#f25e0d;stroke-width:0.51px;stroke-dasharray:1.52,2.03,0,0,0,0;" class="flowline-4"/><path d="M474.659,156.863l-0,8.602" style="fill:none;stroke:#0f0;stroke-width:0.51px;stroke-dasharray:1.52,2.03,0,0,0,0;" class="flowline-4"/><path d="M474.659,69.78l-0,8.602" style="fill:none;stroke:#f25e0d;stroke-width:0.51px;stroke-dasharray:1.52,2.03,0,0,0,0;" class="flowline-4"/><path d="M474.659,130.953l-0,8.602" style="fill:none;stroke:#f25e0d;stroke-width:0.51px;stroke-dasharray:1.52,2.03,0,0,0,0;" class="flowline-4"/><path d="M474.659,98.345l-0,8.095" style="fill:none;stroke:#f25e0d;stroke-width:0.51px;stroke-dasharray:1.52,2.03,0,0,0,0;" class="flowline-4"/><path d="M52.637,113.61l-0,125.562" style="fill:none;stroke:#f25e0d;stroke-width:0.51px;stroke-dasharray:1.52,2.03,0,0,0,0;" class="flowline-4"/><path d="M333.508,289.188l-6.653,-0" style="fill:none;stroke:#f25e0d;stroke-width:0.51px;stroke-dasharray:1.52,2.03,0,0,0,0;" class="flowline-4"/><path d="M193.656,82.272l3.676,-3.677" style="fill:none;stroke:#0f0;stroke-width:0.51px;stroke-dasharray:1.52,1.02,0,0,0,0;" class="flowline-3"/><path d="M116.179,82.272l-3.676,-3.677" style="fill:none;stroke:#0f0;stroke-width:0.51px;stroke-dasharray:1.52,1.02,0,0,0,0;" class="flowline-3"/><path d="M149.106,45.61l3.676,-3.676" style="fill:none;stroke:#0f0;stroke-width:0.51px;stroke-dasharray:1.52,1.02,0,0,0,0;" class="flowline-3"/><path d="M149.106,110.912l3.676,3.677" style="fill:none;stroke:#0f0;stroke-width:0.51px;stroke-dasharray:1.52,1.02,0,0,0,0;" class="flowline-3"/><circle cx="179.007" cy="131.96" r="1.977" style="fill:none;stroke:#0f0;stroke-width:0.51px;stroke-dasharray:1.52,1.02,0,0,0,0;"/><circle cx="199.976" cy="97.593" r="1.977" style="fill:none;stroke:#0f0;stroke-width:0.51px;stroke-dasharray:1.52,1.02,0,0,0,0;"/><circle cx="247.959" cy="126.078" r="1.977" style="fill:none;stroke:#0f0;stroke-width:0.51px;stroke-dasharray:1.52,1.02,0,0,0,0;"/><circle cx="220.128" cy="145.468" r="1.977" style="fill:none;stroke:#0f0;stroke-width:0.51px;stroke-dasharray:1.52,1.02,0,0,0,0;"/><circle cx="316.079" cy="126.107" r="1.977" style="fill:none;stroke:#0f0;stroke-width:0.51px;stroke-dasharray:1.52,1.02,0,0,0,0;"/><circle cx="327.568" cy="196.954" r="1.977" style="fill:none;stroke:#0f0;stroke-width:0.51px;stroke-dasharray:1.52,1.02,0,0,0,0;"/><circle cx="384.729" cy="186.752" r="1.977" style="fill:none;stroke:#0f0;stroke-width:0.51px;stroke-dasharray:1.52,1.02,0,0,0,0;"/><circle cx="199.576" cy="33.427" r="1.977" style="fill:none;stroke:#0f0;stroke-width:0.51px;stroke-dasharray:1.52,1.02,0,0,0,0;"/><circle cx="393.325" cy="186.752" r="1.977" style="fill:none;stroke:#f25e0d;stroke-width:0.51px;stroke-dasharray:1.52,1.02,0,0,0,0;"/><circle cx="190.981" cy="33.427" r="1.977" style="fill:none;stroke:#0f0;stroke-width:0.51px;stroke-dasharray:1.52,1.02,0,0,0,0;"/><circle cx="401.92" cy="186.752" r="1.977" style="fill:none;stroke:#f25e0d;stroke-width:0.51px;stroke-dasharray:1.52,1.02,0,0,0,0;"/><circle cx="182.385" cy="33.427" r="1.977" style="fill:none;stroke:#0f0;stroke-width:0.51px;stroke-dasharray:1.52,1.02,0,0,0,0;"/><circle cx="410.515" cy="186.752" r="1.977" style="fill:none;stroke:#f25e0d;stroke-width:0.51px;stroke-dasharray:1.52,1.02,0,0,0,0;"/><circle cx="173.79" cy="33.427" r="1.977" style="fill:none;stroke:#0f0;stroke-width:0.51px;stroke-dasharray:1.52,1.02,0,0,0,0;"/><circle cx="419.11" cy="186.752" r="1.977" style="fill:none;stroke:#0f0;stroke-width:0.51px;stroke-dasharray:1.52,1.02,0,0,0,0;"/><circle cx="165.195" cy="33.427" r="1.977" style="fill:none;stroke:#0f0;stroke-width:0.51px;stroke-dasharray:1.52,1.02,0,0,0,0;"/><circle cx="389.24" cy="191.263" r="1.977" style="fill:none;stroke:#0f0;stroke-width:0.51px;stroke-dasharray:1.52,1.02,0,0,0,0;"/><circle cx="195.066" cy="28.916" r="1.977" style="fill:none;stroke:#0f0;stroke-width:0.51px;stroke-dasharray:1.52,1.02,0,0,0,0;"/><circle cx="397.835" cy="191.263" r="1.977" style="fill:none;stroke:#f25e0d;stroke-width:0.51px;stroke-dasharray:1.52,1.02,0,0,0,0;"/><circle cx="186.47" cy="28.916" r="1.977" style="fill:none;stroke:#0f0;stroke-width:0.51px;stroke-dasharray:1.52,1.02,0,0,0,0;"/><circle cx="406.43" cy="191.263" r="1.977" style="fill:none;stroke:#f25e0d;stroke-width:0.51px;stroke-dasharray:1.52,1.02,0,0,0,0;"/><circle cx="177.875" cy="28.916" r="1.977" style="fill:none;stroke:#0f0;stroke-width:0.51px;stroke-dasharray:1.52,1.02,0,0,0,0;"/><circle cx="415.026" cy="191.263" r="1.977" style="fill:none;stroke:#0f0;stroke-width:0.51px;stroke-dasharray:1.52,1.02,0,0,0,0;"/><circle cx="169.28" cy="28.916" r="1.977" style="fill:none;stroke:#0f0;stroke-width:0.51px;stroke-dasharray:1.52,1.02,0,0,0,0;"/><circle cx="179.007" cy="131.96" r="1.219" style="fill:#010;"/><circle cx="199.976" cy="97.593" r="1.219" style="fill:#010;"/><circle cx="247.959" cy="126.078" r="1.219" style="fill:#010;"/><circle cx="220.128" cy="145.468" r="1.219" style="fill:#010;"/><circle cx="316.079" cy="126.107" r="1.219" style="fill:#010;"/><circle cx="327.568" cy="196.954" r="1.219" style="fill:#010;"/><circle cx="384.729" cy="186.752" r="1.219" style="fill:#010;"/><circle cx="199.576" cy="33.427" r="1.219" style="fill:#010;"/><circle cx="393.325" cy="186.752" r="1.219" style="fill:#010;"/><circle cx="190.981" cy="33.427" r="1.219" style="fill:#010;"/><circle cx="401.92" cy="186.752" r="1.219" style="fill:#010;"/><circle cx="182.385" cy="33.427" r="1.219" style="fill:#010;"/><circle cx="410.515" cy="186.752" r="1.219" style="fill:#010;"/><circle cx="173.79" cy="33.427" r="1.219" style="fill:#010;"/><circle cx="419.11" cy="186.752" r="1.219" style="fill:#010;"/><circle cx="165.195" cy="33.427" r="1.219" style="fill:#010;"/><circle cx="389.24" cy="191.263" r="1.219" style="fill:#010;"/><circle cx="195.066" cy="28.916" r="1.219" style="fill:#010;"/><circle cx="397.835" cy="191.263" r="1.219" style="fill:#010;"/><circle cx="186.47" cy="28.916" r="1.219" style="fill:#010;"/><circle cx="406.43" cy="191.263" r="1.219" style="fill:#010;"/><circle cx="177.875" cy="28.916" r="1.219" style="fill:#010;"/><circle cx="415.026" cy="191.263" r="1.219" style="fill:#010;"/><circle cx="169.28" cy="28.916" r="1.219" style="fill:#010;"/><path d="M331.442,112.266l11.801,41.055l57.51,-0l-13.214,-13.214l-0,-58.424l-4.238,-0l-0,11.635l-30.501,30.5l-1.911,-1.912l22.605,-22.605l-0,-4.986l-33.575,-0l-0,4.321l9.89,9.89l-0,3.408l-2.701,2.701l-10.347,-0l-2.597,-2.598l-2.722,0.229Z" style="fill:#010;"/><path d="M336.307,117.76c0.15,0.021 0.301,0.033 0.454,0.033l10.347,-0c0.837,-0 1.64,-0.333 2.233,-0.925l2.701,-2.701c0.592,-0.593 0.925,-1.396 0.925,-2.233l-0,-3.408c-0,-0.837 -0.333,-1.641 -0.925,-2.233l-8.82,-8.82l27.114,-0c-0,-0 -0,0.52 -0,0.52l-21.68,21.68c-1.233,1.234 -1.233,3.233 -0,4.466l1.911,1.912c1.234,1.233 3.233,1.233 4.466,-0l29.348,-29.348l-0,43.404c-0,0.837 0.333,1.641 0.925,2.233l7.823,7.823l-47.508,-0c0,-0 -6.152,-21.402 -9.314,-32.403Z" style="fill:#002100;"/><circle cx="293.978" cy="101.81" r="1.915" style="fill:none;stroke:#f25e0d;stroke-width:0.62px;"/><circle cx="427.613" cy="139.041" r="1.915" style="fill:none;stroke:#f25e0d;stroke-width:0.62px;"/><circle cx="421.796" cy="39.314" r="1.915" style="fill:none;stroke:#f25e0d;stroke-width:0.62px;"/><circle cx="464.678" cy="207.189" r="1.915" style="fill:none;stroke:#f25e0d;stroke-width:0.62px;"/><circle cx="138.081" cy="187.967" r="1.915" style="fill:none;stroke:#f25e0d;stroke-width:0.62px;"/><path d="M293.281,83.425l-2.844,0l0,-0.574l2.844,0c-0.009,0.095 -0.014,0.19 -0.014,0.287c-0,0.097 0.005,0.193 0.014,0.287Zm-8.145,6.526l-2.011,-2.012l0.405,-0.406l2.012,2.012c-0.149,0.121 -0.285,0.257 -0.406,0.406Zm1.902,-1.027l-0,-2.844l0.574,0l-0,2.844c-0.095,-0.009 -0.19,-0.014 -0.287,-0.014c-0.097,0 -0.193,0.005 -0.287,0.014Zm2.069,0.621l2.012,-2.012l0.406,0.406l-2.012,2.012c-0.121,-0.149 -0.257,-0.285 -0.406,-0.406Zm1.027,1.901l2.844,0l-0,0.574l-2.844,0c0.009,-0.094 0.014,-0.19 0.014,-0.287c-0,-0.097 -0.005,-0.192 -0.014,-0.287Zm-0.621,2.07l2.012,2.012l-0.406,0.406l-2.012,-2.012c0.149,-0.121 0.285,-0.257 0.406,-0.406Zm6.864,-7.569l0,2.844l-0.574,0l0,-2.844c0.094,0.01 0.19,0.014 0.287,0.014c0.097,0 0.193,-0.004 0.287,-0.014Zm-2.07,-0.62l-2.011,2.011l-0.406,-0.405l2.011,-2.012c0.122,0.149 0.258,0.285 0.406,0.406Z" style="fill:#f25e0d;"/><path d="M146.325,196.994l-2.011,-2.011l0.406,-0.406l2.011,2.011c-0.074,0.06 -0.145,0.124 -0.213,0.193c-0.069,0.068 -0.133,0.139 -0.193,0.213Zm-10.374,-1.145l0,-2.845l0.574,-0l0,2.845c-0.19,-0.02 -0.383,-0.02 -0.574,-0Zm2.071,0.619l2.011,-2.011l0.406,0.405l-2.011,2.011c-0.06,-0.073 -0.125,-0.144 -0.193,-0.213c-0.069,-0.068 -0.14,-0.132 -0.213,-0.192Zm1.025,1.902l2.844,-0l0,0.574l-2.844,-0c0.019,-0.191 0.019,-0.383 -0,-0.574Zm-0.619,2.07l2.011,2.011l-0.406,0.406l-2.011,-2.011c0.073,-0.06 0.144,-0.124 0.213,-0.193c0.068,-0.068 0.133,-0.139 0.193,-0.213Zm-1.903,1.025l0,2.845l-0.574,-0l0,-2.845c0.191,0.019 0.384,0.019 0.574,0Zm10.206,-0.499l-2.011,2.011l-0.406,-0.406l2.011,-2.011c0.06,0.074 0.124,0.145 0.193,0.213c0.068,0.069 0.139,0.133 0.213,0.193Zm-1.025,-1.902l-2.845,0l0,-0.574l2.845,0c-0.019,0.191 -0.019,0.383 -0,0.574Z" style="fill:#f25e0d;"/><path d="M350.261,158.348l0,0.958l-5.212,-0l-0,-4.149l5.212,-0l0,0.957l6.277,0l-0,2.234l-6.277,0Zm-2.685,-2.755c-0.866,0 -1.569,0.703 -1.569,1.569c0,0.865 0.703,1.568 1.569,1.568c0.865,0 1.568,-0.703 1.568,-1.568c0,-0.866 -0.703,-1.569 -1.568,-1.569Zm11.633,-0.436l0,4.149l-1.743,-0l0,-4.149l1.743,-0Zm2.005,0.957l-0,2.234l-1.22,0l-0,-2.234l1.22,0Zm1.438,0.568l-0,1.177l-0.567,-0l0,-1.177l0.567,0Z" style="fill:#0f0;"/><path d="M461.589,196.445l0.677,-0.677l3.685,3.685l-2.933,2.934l-3.686,-3.686l0.677,-0.677l-4.438,-4.438l1.58,-1.579l4.438,4.438Zm-0.049,3.847c0.612,0.612 1.606,0.612 2.218,-0c0.612,-0.612 0.612,-1.606 -0,-2.219c-0.612,-0.612 -1.606,-0.612 -2.218,0c-0.613,0.613 -0.613,1.607 -0,2.219Zm-8.535,-7.918l2.933,-2.934l1.233,1.233l-2.934,2.933l-1.232,-1.232Zm-0.74,-2.094l1.579,-1.58l0.863,0.863l-1.58,1.579l-0.862,-0.862Zm-0.615,-1.419l0.831,-0.832l0.401,0.401l-0.832,0.832l-0.4,-0.401Z" style="fill:#0f0;"/><path d="M205.473,175.549l-0,0.958l-5.213,-0l0,-4.149l5.213,-0l-0,0.957l6.276,0l0,2.234l-6.276,0Zm-2.686,-2.755c-0.866,0 -1.568,0.703 -1.568,1.569c-0,0.865 0.702,1.568 1.568,1.568c0.866,0 1.569,-0.703 1.569,-1.568c-0,-0.866 -0.703,-1.569 -1.569,-1.569Zm11.634,-0.436l-0,4.149l-1.743,-0l-0,-4.149l1.743,-0Zm2.004,0.957l0,2.234l-1.22,0l0,-2.234l1.22,0Zm1.438,0.568l0,1.177l-0.566,-0l-0,-1.177l0.566,0Z" style="fill:#f25e0d;"/><path d="M211.889,171.834l0,0.958l-5.212,-0l-0,-4.149l5.212,0l0,0.958l6.276,-0l0,2.233l-6.276,0Zm-2.685,-2.755c-0.866,0 -1.569,0.703 -1.569,1.569c-0,0.866 0.703,1.569 1.569,1.569c0.865,-0 1.568,-0.703 1.568,-1.569c0,-0.866 -0.703,-1.569 -1.568,-1.569Zm11.633,-0.436l0,4.149l-1.743,-0l0,-4.149l1.743,0Zm2.004,0.958l0,2.233l-1.22,0l0,-2.233l1.22,-0Zm1.438,0.568l0,1.176l-0.566,0l-0,-1.176l0.566,-0Z" style="fill:#b03e00;"/><path d="M225.151,152.175l-0.677,0.677l-3.686,-3.686l2.933,-2.934l3.686,3.686l-0.677,0.677l4.438,4.438l-1.579,1.58l-4.438,-4.438Zm0.049,-3.848c-0.612,-0.612 -1.606,-0.612 -2.219,0c-0.612,0.613 -0.612,1.607 0,2.219c0.613,0.612 1.607,0.612 2.219,-0c0.612,-0.612 0.612,-1.606 -0,-2.219Zm8.534,7.918l-2.933,2.934l-1.233,-1.233l2.934,-2.933l1.232,1.232Zm0.741,2.094l-1.58,1.58l-0.863,-0.863l1.58,-1.579l0.863,0.862Zm0.615,1.419l-0.832,0.832l-0.401,-0.401l0.832,-0.832l0.401,0.401Z" style="fill:#0f0;"/><path d="M466.632,191.025l0.677,-0.677l3.686,3.685l-2.934,2.934l-3.685,-3.686l0.677,-0.677l-4.438,-4.438l1.579,-1.579l4.438,4.438Zm-0.049,3.847c0.612,0.612 1.606,0.612 2.219,-0c0.612,-0.612 0.612,-1.606 -0,-2.219c-0.613,-0.612 -1.607,-0.612 -2.219,0c-0.612,0.613 -0.612,1.607 0,2.219Zm-8.534,-7.918l2.933,-2.934l1.232,1.233l-2.933,2.933l-1.232,-1.232Zm-0.741,-2.094l1.58,-1.58l0.863,0.863l-1.58,1.579l-0.863,-0.862Zm-0.615,-1.419l0.832,-0.832l0.401,0.401l-0.832,0.832l-0.401,-0.401Z" style="fill:#f25e0d;"/><path d="M205.739,182.948l0,0.958l-5.212,-0l-0,-4.149l5.212,-0l0,0.957l6.276,0l0,2.234l-6.276,0Zm-2.686,-2.755c-0.865,0 -1.568,0.703 -1.568,1.569c-0,0.865 0.703,1.568 1.568,1.568c0.866,0 1.569,-0.703 1.569,-1.568c0,-0.866 -0.703,-1.569 -1.569,-1.569Zm11.634,-0.436l0,4.149l-1.743,-0l0,-4.149l1.743,-0Zm2.004,0.957l0,2.234l-1.22,0l0,-2.234l1.22,0Zm1.438,0.568l0,1.177l-0.566,-0l-0,-1.177l0.566,0Z" style="fill:#f25e0d;"/><path d="M212.155,179.233l0,0.958l-5.212,-0l-0,-4.149l5.212,0l0,0.958l6.277,-0l-0,2.233l-6.277,0Zm-2.685,-2.755c-0.866,0 -1.569,0.703 -1.569,1.569c0,0.866 0.703,1.569 1.569,1.569c0.865,-0 1.568,-0.703 1.568,-1.569c0,-0.866 -0.703,-1.569 -1.568,-1.569Zm11.633,-0.436l0,4.149l-1.742,-0l-0,-4.149l1.742,0Zm2.005,0.958l-0,2.233l-1.22,0l-0,-2.233l1.22,-0Zm1.438,0.568l-0,1.176l-0.567,0l0,-1.176l0.567,-0Z" style="fill:#b03e00;"/><path d="M220.107,157.595l-0.677,0.677l-6.886,-6.886l2.934,-2.933l6.886,6.885l-0.677,0.677l4.438,4.438l-1.58,1.58l-4.438,-4.438Zm0.049,-3.847c-0.612,-0.613 -1.606,-0.613 -2.218,-0c-0.612,0.612 -0.612,1.606 -0,2.218c0.612,0.612 1.606,0.612 2.218,-0c0.612,-0.612 0.612,-1.606 0,-2.218Zm8.535,7.917l-2.934,2.934l-1.232,-1.232l2.933,-2.934l1.233,1.232Zm0.74,2.095l-1.58,1.579l-0.862,-0.862l1.579,-1.58l0.863,0.863Zm0.615,1.418l-0.832,0.832l-0.4,-0.401l0.832,-0.831l0.4,0.4Z" style="fill:#f25e0d;"/><path d="M475.793,178.823l0.958,0l-0,13.419c-1.245,1.803 -2.635,1.709 -4.149,-0l-0,-13.419l0.957,0l0,-6.276l2.234,0l0,6.276Zm-2.755,2.686c0,0.866 0.703,1.569 1.569,1.569c0.866,-0 1.568,-0.703 1.568,-1.569c0,-0.866 -0.702,-1.569 -1.568,-1.569c-0.866,0 -1.569,0.703 -1.569,1.569Zm-0.436,-11.634l4.149,0l-0,1.743l-4.149,0l-0,-1.743Zm0.957,-2.004l2.234,0l0,1.22l-2.234,0l0,-1.22Zm0.568,-1.438l1.177,0l-0,0.567l-1.177,-0l0,-0.567Z" style="fill:#f25e0d;"/><path d="M402.585,81.718l-0.957,-0l-0,-13.419c1.244,-1.803 2.634,-1.709 4.148,0l0,13.419l-0.957,-0l-0,6.276l-2.234,0l-0,-6.276Zm1.117,-9.912c-0.692,-0 -1.264,0.52 -1.346,1.19c-0.007,0.054 -0.01,1.741 -0.01,1.797c0,0.749 0.608,1.356 1.356,1.356c0.748,0 1.356,-0.607 1.356,-1.356c-0,-0.063 -0.005,-1.758 -0.013,-1.819c-0.092,-0.66 -0.658,-1.168 -1.343,-1.168Zm-0,-3.372c-0.748,0 -1.356,0.608 -1.356,1.356c0,0.749 0.608,1.356 1.356,1.356c0.748,0 1.356,-0.607 1.356,-1.356c-0,-0.748 -0.608,-1.356 -1.356,-1.356Zm1.638,10.598c0,-0.865 -0.703,-1.568 -1.569,-1.568c-0.865,-0 -1.568,0.703 -1.568,1.568c-0,0.866 0.703,1.569 1.568,1.569c0.866,-0 1.569,-0.703 1.569,-1.569Zm0.436,11.634l-4.148,-0l-0,-1.743l4.148,0l0,1.743Zm-0.957,2.004l-2.234,0l-0,-1.22l2.234,0l-0,1.22Zm-0.568,1.438l-1.177,0l0,-0.566l1.177,-0l-0,0.566Z" style="fill:#003800;"/><path d="M452.815,199.614l-0,-0.957l5.212,-0l0,4.148l-5.212,0l-0,-0.957l-6.276,0l-0,-2.234l6.276,0Zm2.685,2.755c0.866,0 1.569,-0.703 1.569,-1.568c-0,-0.866 -0.703,-1.569 -1.569,-1.569c-0.865,0 -1.568,0.703 -1.568,1.569c-0,0.865 0.703,1.568 1.568,1.568Zm-11.633,0.436l-0,-4.148l1.743,-0l-0,4.148l-1.743,0Zm-2.005,-0.957l0,-2.234l1.22,0l0,2.234l-1.22,0Zm-1.437,-0.568l-0,-1.177l0.566,0l0,1.177l-0.566,-0Z" style="fill:#0f0;"/><rect x="251.578" y="204.889" width="72.124" height="1.446" style="fill:#0f0;"/><path d="M225.938,178.024c2.507,0 7.463,0.092 10.235,0.092c2.054,0 4.025,0.817 5.478,2.27c4.228,4.228 13.265,13.265 17.493,17.493c1.453,1.453 3.424,2.269 5.478,2.269c9.14,-0 35.235,-0 44.374,-0c2.055,-0 4.026,-0.816 5.479,-2.269c5.824,-5.824 21.251,-21.252 27.075,-27.076c1.453,-1.453 3.424,-2.269 5.478,-2.269c8.947,-0 34.355,-0 47.274,-0c4.279,-0 7.747,3.469 7.747,7.747c0,1.22 0,2.47 0,3.658c0,1.34 -0.075,2.886 -0.075,3.935" style="fill:none;stroke:#f25e0d;stroke-width:0.62px;"/><path d="M224.546,180.545c1.449,-1.619 1.497,-3.238 -0,-4.857" style="fill:none;stroke:#f25e0d;stroke-width:0.62px;"/><path d="M218.617,174.491c-0,0 8.238,-0.173 10.793,-0.227c0.495,-0.01 0.99,0.043 1.472,0.158c1.6,0.383 5.291,1.266 5.291,1.266c2.698,0 5.287,1.072 7.195,2.981l17.493,17.493c0.998,0.997 2.351,1.558 3.761,1.558l44.374,-0c1.411,-0 2.764,-0.561 3.762,-1.558l27.075,-27.076c1.909,-1.908 4.497,-2.98 7.195,-2.98l47.274,-0c5.62,-0 10.175,4.556 10.175,10.175l0,3.592c0,0.132 0.011,0.264 0.031,0.394c0.194,1.244 1.25,8.003 1.25,8.003" style="fill:none;stroke:#f25e0d;stroke-width:0.62px;"/><path d="M398.181,188.029c-0,0 1.176,-6.789 1.403,-8.095c0.025,-0.144 0.037,-0.29 0.037,-0.436c0,-0.757 0,-3.217 0,-3.217c0,-2.937 -2.381,-5.319 -5.319,-5.319l-47.274,0c-1.41,0 -2.763,0.561 -3.761,1.558l-27.075,27.076c-1.909,1.908 -4.497,2.98 -7.196,2.98l-44.374,0c-2.698,0 -5.287,-1.072 -7.195,-2.98l-17.493,-17.493c-0.998,-0.998 -2.351,-1.558 -3.761,-1.558l-6.311,-0c-0.762,-0 -1.516,0.15 -2.219,0.441c-0.455,0.188 -0.978,0.404 -1.404,0.581c-0.551,0.228 -1.143,0.346 -1.74,0.346l-5.137,-0" style="fill:none;stroke:#f25e0d;stroke-width:0.62px;"/><path d="M225.404,170.962l10.769,2.433c3.307,0 6.478,1.314 8.816,3.652l17.494,17.493c0.567,0.568 1.337,0.887 2.139,0.887l44.374,-0c0.803,-0 1.573,-0.319 2.14,-0.887l27.076,-27.075c2.338,-2.339 5.51,-3.652 8.816,-3.652l47.274,-0c6.886,-0 12.469,5.582 12.469,12.468l-0,1.673c-0,0.376 0.083,0.746 0.242,1.086c0.622,1.323 2.228,4.736 2.228,4.736" style="fill:none;stroke:#f25e0d;stroke-width:0.62px;"/><path d="M394.879,184.047c-0,0 1.503,-2.847 2.154,-4.08c0.194,-0.367 0.295,-0.776 0.295,-1.191c-0,-0.913 -0,-2.495 -0,-2.495c-0,-1.671 -1.355,-3.026 -3.026,-3.026l-47.274,0c-0.802,0 -1.572,0.319 -2.139,0.887l-27.076,27.075c-2.338,2.339 -5.51,3.652 -8.817,3.652l-44.374,0c-3.307,0 -6.478,-1.313 -8.816,-3.652l-17.494,-17.493c-0.567,-0.567 -1.337,-0.886 -2.139,-0.886l-7.629,-0c-0.879,-0 -1.721,0.349 -2.342,0.97c-1.14,1.14 -3.058,3.058 -4.501,4.501c-1.226,1.226 -2.89,1.915 -4.624,1.915l-69.177,-0c-0.615,-0 -1.205,-0.245 -1.64,-0.679c-0.102,-0.102 -0.209,-0.209 -0.316,-0.316c-0.665,-0.666 -1.568,-1.04 -2.51,-1.04c-1.963,0 -5.197,0 -5.197,0" style="fill:none;stroke:#f25e0d;stroke-width:0.62px;"/><path d="M225.938,178.024c2.507,0 7.463,0.092 10.235,0.092c2.054,0 4.025,0.817 5.478,2.27c4.228,4.228 13.265,13.265 17.493,17.493c1.453,1.453 3.424,2.269 5.478,2.269c9.14,-0 35.235,-0 44.374,-0c2.055,-0 4.026,-0.816 5.479,-2.269c5.824,-5.824 21.251,-21.252 27.075,-27.076c1.453,-1.453 3.424,-2.269 5.478,-2.269c8.947,-0 34.355,-0 47.274,-0c4.279,-0 7.747,3.469 7.747,7.747c0,1.22 0,2.47 0,3.658c0,1.34 -0.075,2.886 -0.075,3.935m-183.357,-9.383c-0,0 8.238,-0.173 10.793,-0.227c0.495,-0.01 0.99,0.043 1.472,0.158c1.6,0.383 5.291,1.266 5.291,1.266c2.698,0 5.287,1.072 7.195,2.981l17.493,17.493c0.998,0.997 2.351,1.558 3.761,1.558l44.374,-0c1.411,-0 2.764,-0.561 3.762,-1.558l27.075,-27.076c1.909,-1.908 4.497,-2.98 7.195,-2.98l47.274,-0c5.62,-0 10.175,4.556 10.175,10.175l0,3.592c0,0.132 0.011,0.264 0.031,0.394c0.194,1.244 1.25,8.003 1.25,8.003m-7.577,-0.241c-0,0 1.176,-6.789 1.403,-8.095c0.025,-0.144 0.037,-0.29 0.037,-0.436c0,-0.757 0,-3.217 0,-3.217c0,-2.937 -2.381,-5.319 -5.319,-5.319l-47.274,0c-1.41,0 -2.763,0.561 -3.761,1.558l-27.075,27.076c-1.909,1.908 -4.497,2.98 -7.196,2.98l-44.374,0c-2.698,0 -5.287,-1.072 -7.195,-2.98l-17.493,-17.493c-0.998,-0.998 -2.351,-1.558 -3.761,-1.558l-6.311,-0c-0.762,-0 -1.516,0.15 -2.219,0.441c-0.455,0.188 -0.978,0.404 -1.404,0.581c-0.551,0.228 -1.143,0.346 -1.74,0.346l-5.137,-0m6.042,-10.951l10.769,2.433c3.307,0 6.478,1.314 8.816,3.652l17.494,17.493c0.567,0.568 1.337,0.887 2.139,0.887l44.374,-0c0.803,-0 1.573,-0.319 2.14,-0.887l27.076,-27.075c2.338,-2.339 5.51,-3.652 8.816,-3.652l47.274,-0c6.886,-0 12.469,5.582 12.469,12.468l-0,1.673c-0,0.376 0.083,0.746 0.242,1.086c0.622,1.323 2.228,4.736 2.228,4.736m-14.362,0.271c-0,0 1.503,-2.847 2.154,-4.08c0.194,-0.367 0.295,-0.776 0.295,-1.191c-0,-0.913 -0,-2.495 -0,-2.495c-0,-1.671 -1.355,-3.026 -3.026,-3.026l-47.274,0c-0.802,0 -1.572,0.319 -2.139,0.887l-27.076,27.075c-2.338,2.339 -5.51,3.652 -8.817,3.652l-44.374,0c-3.307,0 -6.478,-1.313 -8.816,-3.652l-17.494,-17.493c-0.567,-0.567 -1.337,-0.886 -2.139,-0.886l-7.629,-0c-0.879,-0 -1.721,0.349 -2.342,0.97c-1.14,1.14 -3.058,3.058 -4.501,4.501c-1.226,1.226 -2.89,1.915 -4.624,1.915l-69.177,-0c-0.615,-0 -1.205,-0.245 -1.64,-0.679c-0.102,-0.102 -0.209,-0.209 -0.316,-0.316c-0.665,-0.666 -1.568,-1.04 -2.51,-1.04c-1.963,0 -5.197,0 -5.197,0" style="fill:none;stroke:#fff;stroke-width:0.62px;stroke-dasharray:6.21,62.05,0,0,0,0;stroke-dashoffset:14.89;" class="flowline-68"/><path d="M363.766,157.401l39.813,0c1.134,0 2.222,0.451 3.024,1.253c2.657,2.658 8.833,8.834 11.473,11.473c0.789,0.79 1.239,1.857 1.252,2.973c0.04,3.378 0.123,10.489 0.123,10.489" style="fill:none;stroke:#0f0;stroke-width:0.62px;"/><path d="M460.625,201.59c-0,0 0.204,4.238 0.338,7.014c0.066,1.352 -0.873,2.546 -2.203,2.802c-5.591,1.073 -19.688,3.781 -24.131,4.634c-0.856,0.164 -1.739,-0.092 -2.375,-0.688c-3.537,-3.323 -15.306,-14.379 -18.463,-17.345c-0.504,-0.473 -1.17,-0.737 -1.862,-0.737c-3.143,-0 -12.286,-0 -15.45,-0c-0.701,-0 -1.375,-0.271 -1.882,-0.756c-1.107,-1.062 -2.988,-2.866 -2.988,-2.866" style="fill:none;stroke:#0f0;stroke-width:0.62px;"/><path d="M418.163,191.131l24.231,-0c0.563,-0 1.103,0.223 1.5,0.621c1.064,1.063 3.22,3.219 4.283,4.283c0.398,0.397 0.938,0.621 1.5,0.621c1.057,-0 2.852,-0 4.168,-0c0.908,-0 1.643,0.736 1.643,1.643c0,0 0,0.001 0,0.001" style="fill:none;stroke:#0f0;stroke-width:0.62px;"/><path d="M467.34,189.585l-0,-4.84c-0,-0.732 0.29,-1.433 0.807,-1.95c0.517,-0.517 1.219,-0.808 1.95,-0.808l1.12,0" style="fill:none;stroke:#0f0;stroke-width:0.62px;"/><path d="M466.133,188.754l-0,-4.009c-0,-1.052 0.417,-2.06 1.161,-2.804c0.743,-0.743 1.752,-1.161 2.803,-1.161l1.146,0" style="fill:none;stroke:#0f0;stroke-width:0.62px;"/><path d="M471.217,183.194l-1.12,0c-0.411,0 -0.805,0.164 -1.096,0.454c-0.291,0.291 -0.454,0.685 -0.454,1.097l-0,3.833" style="fill:none;stroke:#0f0;stroke-width:0.62px;"/><circle cx="401.936" cy="186.799" r="0.707" style="fill:#f25e0d;"/><circle cx="406.481" cy="191.279" r="0.707" style="fill:#f25e0d;"/><circle cx="397.829" cy="191.305" r="0.707" style="fill:#f25e0d;"/><circle cx="393.35" cy="186.091" r="0.346" style="fill:#f25e0d;"/><circle cx="394.032" cy="187.211" r="0.346" style="fill:#f25e0d;"/><circle cx="392.693" cy="187.199" r="0.346" style="fill:#f25e0d;"/><circle cx="410.383" cy="183.825" r="0.346" style="fill:#f25e0d;"/><circle cx="407.654" cy="186.516" r="0.346" style="fill:#f25e0d;"/><circle cx="413.345" cy="186.542" r="0.346" style="fill:#f25e0d;"/><circle cx="410.847" cy="189.542" r="0.346" style="fill:#f25e0d;"/><path d="M383.978,301.475c0,-0.192 0.156,-0.347 0.347,-0.347l0.857,-0c0.192,-0 0.347,0.155 0.347,0.347l0,0.857c0,0.191 -0.155,0.347 -0.347,0.347l-0.857,-0c-0.191,-0 -0.347,-0.156 -0.347,-0.347l0,-0.857Zm1.551,-1.551c0,-0.192 0.156,-0.347 0.347,-0.347l0.857,-0c0.192,-0 0.347,0.155 0.347,0.347l0,0.857c0,0.191 -0.155,0.347 -0.347,0.347l-0.857,-0c-0.191,-0 -0.347,-0.156 -0.347,-0.347l0,-0.857Zm1.551,-1.551c0,-0.192 0.155,-0.347 0.347,-0.347l0.857,0c0.192,0 0.347,0.155 0.347,0.347l-0,0.857c-0,0.192 -0.155,0.347 -0.347,0.347l-0.857,-0c-0.192,-0 -0.347,-0.155 -0.347,-0.347l0,-0.857Zm-3.102,0.857l0,-0.857c0,-0.192 0.156,-0.347 0.347,-0.347l0.857,0c0.192,0 0.347,0.155 0.347,0.347l0,0.857c0,0.192 -0.155,0.347 -0.347,0.347l-0.857,-0c-0.191,-0 -0.347,-0.155 -0.347,-0.347Zm3.102,3.102l0,-0.857c0,-0.192 0.155,-0.347 0.347,-0.347l0.857,-0c0.192,-0 0.347,0.155 0.347,0.347l-0,0.857c-0,0.191 -0.155,0.347 -0.347,0.347l-0.857,-0c-0.192,-0 -0.347,-0.156 -0.347,-0.347Z"/><path d="M326.372,248.027c0.135,-0.135 0.355,-0.135 0.49,0l0.606,0.606c0.136,0.136 0.136,0.355 0,0.491l-0.606,0.606c-0.135,0.135 -0.355,0.135 -0.49,-0l-0.606,-0.606c-0.136,-0.136 -0.136,-0.355 -0,-0.491l0.606,-0.606Zm2.193,0c0.135,-0.135 0.355,-0.135 0.491,0l0.606,0.606c0.135,0.136 0.135,0.355 -0,0.491l-0.606,0.606c-0.136,0.135 -0.356,0.135 -0.491,-0l-0.606,-0.606c-0.136,-0.136 -0.136,-0.355 -0,-0.491l0.606,-0.606Zm2.193,0c0.136,-0.135 0.355,-0.135 0.491,0l0.606,0.606c0.135,0.136 0.135,0.355 -0,0.491l-0.606,0.606c-0.136,0.135 -0.355,0.135 -0.491,-0l-0.606,-0.606c-0.135,-0.136 -0.135,-0.355 0,-0.491l0.606,-0.606Zm-2.799,-1.587l0.606,-0.606c0.135,-0.136 0.355,-0.136 0.491,-0l0.606,0.606c0.135,0.135 0.135,0.355 -0,0.49l-0.606,0.606c-0.136,0.136 -0.356,0.136 -0.491,0l-0.606,-0.606c-0.136,-0.135 -0.136,-0.355 -0,-0.49Zm-0,4.386l0.606,-0.606c0.135,-0.135 0.355,-0.135 0.491,0l0.606,0.606c0.135,0.136 0.135,0.355 -0,0.491l-0.606,0.606c-0.136,0.135 -0.356,0.135 -0.491,-0l-0.606,-0.606c-0.136,-0.136 -0.136,-0.355 -0,-0.491Z"/><path d="M376.148,301.475c0,-0.192 0.156,-0.347 0.347,-0.347l0.857,-0c0.192,-0 0.347,0.155 0.347,0.347l0,0.857c0,0.191 -0.155,0.347 -0.347,0.347l-0.857,-0c-0.191,-0 -0.347,-0.156 -0.347,-0.347l0,-0.857Zm1.551,-1.551c0,-0.192 0.155,-0.347 0.347,-0.347l0.857,-0c0.192,-0 0.347,0.155 0.347,0.347l-0,0.857c-0,0.191 -0.155,0.347 -0.347,0.347l-0.857,-0c-0.192,-0 -0.347,-0.156 -0.347,-0.347l0,-0.857Zm1.551,-1.551c-0,-0.192 0.155,-0.347 0.347,-0.347l0.857,0c0.191,0 0.347,0.155 0.347,0.347l-0,0.857c-0,0.192 -0.156,0.347 -0.347,0.347l-0.857,-0c-0.192,-0 -0.347,-0.155 -0.347,-0.347l-0,-0.857Zm-3.102,0.857l0,-0.857c0,-0.192 0.156,-0.347 0.347,-0.347l0.857,0c0.192,0 0.347,0.155 0.347,0.347l0,0.857c0,0.192 -0.155,0.347 -0.347,0.347l-0.857,-0c-0.191,-0 -0.347,-0.155 -0.347,-0.347Zm3.102,3.102l-0,-0.857c-0,-0.192 0.155,-0.347 0.347,-0.347l0.857,-0c0.191,-0 0.347,0.155 0.347,0.347l-0,0.857c-0,0.191 -0.156,0.347 -0.347,0.347l-0.857,-0c-0.192,-0 -0.347,-0.156 -0.347,-0.347Z"/><path d="M320.835,242.49c0.135,-0.135 0.355,-0.135 0.491,0l0.606,0.606c0.135,0.136 0.135,0.355 -0,0.491l-0.606,0.606c-0.136,0.135 -0.356,0.135 -0.491,-0l-0.606,-0.606c-0.136,-0.136 -0.136,-0.355 -0,-0.491l0.606,-0.606Zm2.193,0c0.136,-0.135 0.355,-0.135 0.491,0l0.606,0.606c0.135,0.136 0.135,0.355 -0,0.491l-0.606,0.606c-0.136,0.135 -0.355,0.135 -0.491,-0l-0.606,-0.606c-0.135,-0.136 -0.135,-0.355 0,-0.491l0.606,-0.606Zm2.193,0c0.136,-0.135 0.356,-0.135 0.491,0l0.606,0.606c0.136,0.136 0.136,0.355 0,0.491l-0.606,0.606c-0.135,0.135 -0.355,0.135 -0.491,-0l-0.606,-0.606c-0.135,-0.136 -0.135,-0.355 0,-0.491l0.606,-0.606Zm-2.799,-1.587l0.606,-0.606c0.136,-0.135 0.355,-0.135 0.491,0l0.606,0.606c0.135,0.136 0.135,0.355 -0,0.491l-0.606,0.606c-0.136,0.135 -0.355,0.135 -0.491,-0l-0.606,-0.606c-0.135,-0.136 -0.135,-0.355 0,-0.491Zm0,4.387l0.606,-0.606c0.136,-0.136 0.355,-0.136 0.491,-0l0.606,0.606c0.135,0.135 0.135,0.355 -0,0.49l-0.606,0.606c-0.136,0.136 -0.355,0.136 -0.491,0l-0.606,-0.606c-0.135,-0.135 -0.135,-0.355 0,-0.49Z"/><path d="M367.865,301.475c0,-0.192 0.155,-0.347 0.347,-0.347l0.857,-0c0.192,-0 0.347,0.155 0.347,0.347l-0,0.857c-0,0.191 -0.155,0.347 -0.347,0.347l-0.857,-0c-0.192,-0 -0.347,-0.156 -0.347,-0.347l0,-0.857Zm1.551,-1.551c-0,-0.192 0.155,-0.347 0.347,-0.347l0.857,-0c0.191,-0 0.347,0.155 0.347,0.347l-0,0.857c-0,0.191 -0.156,0.347 -0.347,0.347l-0.857,-0c-0.192,-0 -0.347,-0.156 -0.347,-0.347l-0,-0.857Zm1.551,-1.551c-0,-0.192 0.155,-0.347 0.347,-0.347l0.857,0c0.191,0 0.347,0.155 0.347,0.347l-0,0.857c-0,0.192 -0.156,0.347 -0.347,0.347l-0.857,-0c-0.192,-0 -0.347,-0.155 -0.347,-0.347l-0,-0.857Zm-3.102,0.857l0,-0.857c0,-0.192 0.155,-0.347 0.347,-0.347l0.857,0c0.192,0 0.347,0.155 0.347,0.347l-0,0.857c-0,0.192 -0.155,0.347 -0.347,0.347l-0.857,-0c-0.192,-0 -0.347,-0.155 -0.347,-0.347Zm3.102,3.102l-0,-0.857c-0,-0.192 0.155,-0.347 0.347,-0.347l0.857,-0c0.191,-0 0.347,0.155 0.347,0.347l-0,0.857c-0,0.191 -0.156,0.347 -0.347,0.347l-0.857,-0c-0.192,-0 -0.347,-0.156 -0.347,-0.347Z"/><path d="M314.978,236.633c0.135,-0.135 0.355,-0.135 0.49,0l0.607,0.606c0.135,0.136 0.135,0.355 -0,0.491l-0.607,0.606c-0.135,0.135 -0.355,0.135 -0.49,-0l-0.606,-0.606c-0.136,-0.136 -0.136,-0.355 -0,-0.491l0.606,-0.606Zm2.193,0c0.136,-0.135 0.355,-0.135 0.491,0l0.606,0.606c0.135,0.136 0.135,0.355 -0,0.491l-0.606,0.606c-0.136,0.135 -0.355,0.135 -0.491,-0l-0.606,-0.606c-0.135,-0.136 -0.135,-0.355 0,-0.491l0.606,-0.606Zm2.193,0c0.136,-0.135 0.355,-0.135 0.491,0l0.606,0.606c0.135,0.136 0.135,0.355 -0,0.491l-0.606,0.606c-0.136,0.135 -0.355,0.135 -0.491,-0l-0.606,-0.606c-0.135,-0.136 -0.135,-0.355 0,-0.491l0.606,-0.606Zm-2.799,-1.587l0.606,-0.606c0.136,-0.135 0.355,-0.135 0.491,0l0.606,0.606c0.135,0.136 0.135,0.355 -0,0.491l-0.606,0.606c-0.136,0.135 -0.355,0.135 -0.491,-0l-0.606,-0.606c-0.135,-0.136 -0.135,-0.355 0,-0.491Zm0,4.387l0.606,-0.607c0.136,-0.135 0.355,-0.135 0.491,0l0.606,0.607c0.135,0.135 0.135,0.355 -0,0.49l-0.606,0.606c-0.136,0.136 -0.355,0.136 -0.491,0l-0.606,-0.606c-0.135,-0.135 -0.135,-0.355 0,-0.49Z"/><circle cx="215.665" cy="207.315" r="1.122" style="fill:#0f0;"/><circle cx="132.428" cy="22.768" r="5.446" style="fill:none;stroke:#003100;stroke-width:1.15px;stroke-dasharray:5.77,5.77,0,0,0,0;stroke-dashoffset:27.69;"/><circle cx="132.428" cy="22.768" r="4.033" style="fill:none;stroke:#00c600;stroke-width:0.51px;stroke-dasharray:2.54,2.54,0,0,0,0;stroke-dashoffset:12.18;"/><rect x="135.562" y="15.16" width="4.624" height="2.161" style="fill:none;stroke:#00c600;stroke-width:0.51px;stroke-dasharray:2.54,2.54,0,0,0,0;stroke-dashoffset:12.18;" class="flowline-5"/><path d="M420.922,264.681c-0.572,-0.197 -0.949,-0.605 -1.013,-1.189c-0.079,-0.725 -0.096,-1.463 -0.061,-2.192c0.047,-0.948 0.169,-1.892 0.263,-2.837c0.024,-0.25 0.067,-0.497 0.098,-0.746c0.007,-0.056 0.001,-0.114 0.001,-0.203c-0.314,0.113 -0.578,0.256 -0.795,0.467c-0.062,0.061 -0.072,0.187 -0.083,0.286c-0.112,1.018 -0.214,2.038 -0.333,3.055c-0.023,0.198 -0.087,0.398 -0.165,0.582c-0.079,0.187 -0.181,0.195 -0.325,0.054c-0.215,-0.211 -0.326,-0.478 -0.314,-0.771c0.033,-0.738 0.089,-1.476 0.135,-2.214c0.004,-0.071 0,-0.144 0,-0.217c-0.376,0.054 -0.597,0.292 -0.629,0.646c-0.084,0.932 -0.315,1.816 -0.876,2.587c-0.089,0.122 -0.201,0.228 -0.302,0.341c-0.024,-0.008 -0.047,-0.017 -0.071,-0.026c0.004,-0.078 -0.005,-0.161 0.015,-0.235c0.163,-0.622 0.345,-1.239 0.497,-1.863c0.19,-0.784 0.313,-1.579 0.33,-2.388c0.003,-0.138 0.003,-0.32 0.189,-0.333c0.177,-0.013 0.276,0.132 0.325,0.288c0.038,0.121 0.049,0.249 0.076,0.398c0.309,-0.156 0.612,-0.268 0.658,-0.679c0.07,-0.632 0.175,-1.26 0.263,-1.89c0.009,-0.065 0.001,-0.133 0.001,-0.245c-0.099,0.063 -0.172,0.104 -0.24,0.153c-0.403,0.288 -0.803,0.579 -1.207,0.865c-0.225,0.16 -0.7,0.144 -0.892,-0.048c-0.051,-0.051 -0.069,-0.194 -0.035,-0.259c0.058,-0.109 0.159,-0.204 0.261,-0.279c0.739,-0.539 1.482,-1.074 2.228,-1.604c0.303,-0.216 0.643,-0.32 1.018,-0.255c0.281,0.049 0.377,0.18 0.31,0.456c-0.131,0.546 -0.274,1.089 -0.418,1.632c-0.086,0.324 -0.185,0.645 -0.281,0.979c0.423,-0.048 0.945,-0.513 1.045,-0.912c0.165,-0.655 0.334,-1.31 0.486,-1.968c0.044,-0.189 0.13,-0.27 0.32,-0.249c0.188,0.02 0.381,0.02 0.564,0.06c0.239,0.051 0.34,0.22 0.276,0.456c-0.178,0.658 -0.367,1.313 -0.555,1.968c-0.014,0.051 -0.04,0.106 -0.078,0.142c-0.336,0.319 -0.386,0.742 -0.438,1.169c-0.144,1.185 -0.246,2.374 -0.237,3.569c0.006,0.849 0.041,1.697 0.073,2.545c0.007,0.202 0.07,0.402 0.073,0.604c0.002,0.099 -0.075,0.2 -0.116,0.3l-0.041,-0Zm1.542,-4.807c0.129,-0.053 0.263,-0.097 0.386,-0.161c0.336,-0.173 0.656,-0.382 1.003,-0.528c0.543,-0.227 1.107,-0.125 1.663,-0.028c0.155,0.027 0.306,0.078 0.459,0.118c0,0.023 0,0.047 0.001,0.07c-0.179,0.043 -0.356,0.094 -0.537,0.126c-1.085,0.191 -2.009,0.711 -2.852,1.395c-0.223,0.18 -0.467,0.295 -0.765,0.266c-0.318,-0.032 -0.513,-0.255 -0.416,-0.557c0.168,-0.519 0.37,-1.029 0.573,-1.537c0.325,-0.809 0.664,-1.613 0.996,-2.42c0.028,-0.069 0.049,-0.141 0.064,-0.214c0.083,-0.39 0.053,-0.337 -0.204,-0.478c-0.144,-0.08 -0.252,-0.187 -0.235,-0.37c0.019,-0.202 0.177,-0.407 0.357,-0.454c0.252,-0.066 0.498,-0.031 0.73,0.081c0.19,0.092 0.288,0.27 0.227,0.515c-0.147,0.596 -0.281,1.2 -0.496,1.773c-0.278,0.74 -0.63,1.452 -0.948,2.177c-0.021,0.048 -0.033,0.1 -0.049,0.15c0.014,0.026 0.029,0.051 0.043,0.076Z" style="fill:#0f0;"/><path d="M425.502,271.182l-0.23,0.23l0.514,0.515l-0.29,0.289l-1.405,-1.405l0.522,-0.522c0.166,-0.166 0.331,-0.257 0.495,-0.273c0.164,-0.016 0.314,0.043 0.449,0.178c0.096,0.096 0.155,0.197 0.178,0.302c0.022,0.106 0.01,0.22 -0.036,0.342l0.878,0.27l0.014,0.014l-0.311,0.31l-0.778,-0.25Zm-0.465,-0.004l0.234,-0.234c0.072,-0.072 0.11,-0.147 0.113,-0.224c0.003,-0.077 -0.028,-0.148 -0.093,-0.213c-0.066,-0.066 -0.137,-0.099 -0.213,-0.1c-0.076,-0 -0.152,0.039 -0.23,0.116l-0.233,0.233l0.422,0.422Z" style="fill:#001e00;fill-rule:nonzero;"/><path d="M427.065,270.647l-0.289,0.289l-1.405,-1.405l0.289,-0.289l1.405,1.405Z" style="fill:#001e00;fill-rule:nonzero;"/><path d="M427.969,268.808c0.14,0.162 0.203,0.337 0.189,0.524c-0.014,0.188 -0.103,0.364 -0.267,0.529c-0.181,0.18 -0.383,0.261 -0.607,0.243c-0.225,-0.018 -0.443,-0.133 -0.655,-0.345l-0.086,-0.086c-0.135,-0.135 -0.23,-0.278 -0.285,-0.428c-0.056,-0.151 -0.067,-0.298 -0.033,-0.441c0.033,-0.144 0.109,-0.274 0.226,-0.391c0.162,-0.162 0.336,-0.249 0.522,-0.261c0.186,-0.013 0.365,0.052 0.537,0.193l-0.289,0.29c-0.098,-0.084 -0.189,-0.124 -0.273,-0.122c-0.085,0.003 -0.171,0.049 -0.26,0.137c-0.096,0.097 -0.134,0.204 -0.113,0.321c0.021,0.117 0.104,0.249 0.248,0.395l0.106,0.107c0.152,0.151 0.286,0.239 0.402,0.264c0.116,0.024 0.224,-0.014 0.323,-0.113c0.09,-0.089 0.136,-0.177 0.139,-0.261c0.003,-0.085 -0.035,-0.174 -0.114,-0.266l0.29,-0.289Z" style="fill:#001e00;fill-rule:nonzero;"/><path d="M429.77,267.942l-0.289,0.29l-0.602,-0.603l-0.565,0.565l0.602,0.602l-0.289,0.29l-1.405,-1.405l0.289,-0.29l0.57,0.569l0.564,-0.564l-0.569,-0.569l0.289,-0.29l1.405,1.405Z" style="fill:#001e00;fill-rule:nonzero;"/><path d="M430.544,266.589l-0.507,0.508l0.193,0.386l-0.308,0.308l-0.882,-1.928l0.268,-0.269l1.931,0.879l-0.308,0.308l-0.387,-0.192Zm-0.664,0.195l0.352,-0.351l-0.703,-0.349l0.351,0.7Z" style="fill:#001e00;fill-rule:nonzero;"/><path d="M431.376,265.308l-0.231,0.23l0.515,0.515l-0.29,0.289l-1.405,-1.405l0.522,-0.522c0.166,-0.166 0.331,-0.257 0.495,-0.273c0.164,-0.016 0.314,0.043 0.449,0.178c0.096,0.096 0.155,0.197 0.178,0.303c0.022,0.105 0.01,0.219 -0.036,0.341l0.878,0.27l0.014,0.014l-0.311,0.311l-0.778,-0.251Zm-0.465,-0.004l0.233,-0.234c0.073,-0.072 0.111,-0.147 0.114,-0.224c0.003,-0.077 -0.028,-0.148 -0.093,-0.213c-0.067,-0.066 -0.137,-0.099 -0.213,-0.1c-0.076,-0 -0.152,0.039 -0.23,0.117l-0.233,0.232l0.422,0.422Z" style="fill:#001e00;fill-rule:nonzero;"/><path d="M432.632,265.081l-1.405,-1.405l0.432,-0.432c0.123,-0.124 0.262,-0.207 0.415,-0.248c0.153,-0.042 0.308,-0.039 0.465,0.009c0.158,0.048 0.302,0.137 0.432,0.268l0.065,0.064c0.13,0.131 0.22,0.274 0.268,0.429c0.048,0.155 0.051,0.31 0.009,0.464c-0.042,0.154 -0.124,0.292 -0.246,0.416l-0.435,0.435Zm-0.882,-1.46l0.938,0.938l0.14,-0.14c0.114,-0.113 0.163,-0.237 0.149,-0.371c-0.014,-0.133 -0.089,-0.27 -0.226,-0.409l-0.074,-0.074c-0.143,-0.143 -0.281,-0.222 -0.414,-0.236c-0.132,-0.015 -0.256,0.035 -0.37,0.149l-0.143,0.143Z" style="fill:#001e00;fill-rule:nonzero;"/><path d="M435.552,262.161l-0.29,0.289l-0.602,-0.602l-0.565,0.565l0.603,0.602l-0.29,0.289l-1.405,-1.405l0.29,-0.289l0.569,0.569l0.564,-0.564l-0.569,-0.57l0.29,-0.289l1.405,1.405Z" style="fill:#001e00;fill-rule:nonzero;"/><path d="M436.326,260.808l-0.508,0.507l0.193,0.386l-0.308,0.308l-0.882,-1.928l0.268,-0.268l1.931,0.879l-0.308,0.308l-0.386,-0.192Zm-0.664,0.195l0.351,-0.351l-0.703,-0.35l0.352,0.701Z" style="fill:#001e00;fill-rule:nonzero;"/><path d="M437.209,260.039l0.614,-0.615l0.233,0.233l-0.904,0.904l-1.405,-1.405l0.289,-0.29l1.173,1.173Z" style="fill:#001e00;fill-rule:nonzero;"/><path d="M438.458,258.036l-0.556,0.556l0.377,0.377l0.652,-0.653l0.233,0.233l-0.942,0.942l-1.405,-1.405l0.94,-0.94l0.234,0.234l-0.65,0.651l0.335,0.335l0.555,-0.556l0.227,0.226Z" style="fill:#001e00;fill-rule:nonzero;"/><path d="M90.491,116.866c0.372,-0.372 0.974,-0.372 1.346,-0c0.842,0.842 2.276,2.275 3.118,3.118c0.371,0.371 0.371,0.973 -0,1.345c-1.128,1.127 -3.385,3.385 -4.512,4.512c-0.372,0.371 -0.974,0.371 -1.346,-0c-0.842,-0.842 -2.275,-2.276 -3.117,-3.118c-0.372,-0.372 -0.372,-0.974 -0,-1.345c1.127,-1.128 3.384,-3.385 4.511,-4.512Z" style="fill:none;stroke:#f25e0d;stroke-width:0.28px;stroke-dasharray:1.41,1.41,0,0,0,0;stroke-dashoffset:6.77;" class="flowline-3"/><circle cx="102.625" cy="109.027" r="1.408" style="fill:none;stroke:#f25e0d;stroke-width:0.28px;stroke-dasharray:1.41,1.41,0,0,0,0;stroke-dashoffset:6.77;"/><circle cx="123.923" cy="50.199" r="1.408" style="fill:none;stroke:#f25e0d;stroke-width:0.28px;stroke-dasharray:1.41,1.41,0,0,0,0;stroke-dashoffset:6.77;"/><path d="M347.928,150.163l41.059,-0" style="fill:none;stroke:#005900;stroke-width:0.76px;stroke-dasharray:2.28,1.52,0,0,0,0;" class="flowline-4"/><path d="M346.811,97.777l20.699,0" style="fill:none;stroke:#005900;stroke-width:0.76px;stroke-dasharray:2.28,1.52,0,0,0,0;" class="flowline-4"/><path d="M54.548,238.717c0.37,-0 0.671,0.301 0.671,0.671c0,0.371 -0.301,0.672 -0.671,0.672c-0.371,-0 -0.672,-0.301 -0.672,-0.672c0,-0.37 0.301,-0.671 0.672,-0.671Zm22.089,-0c0.37,-0 0.671,0.301 0.671,0.671c-0,0.371 -0.301,0.672 -0.671,0.672c-0.371,-0 -0.672,-0.301 -0.672,-0.672c0,-0.37 0.301,-0.671 0.672,-0.671Zm-0,-14.44c0.37,-0 0.671,0.301 0.671,0.671c-0,0.371 -0.301,0.672 -0.671,0.672c-0.371,-0 -0.672,-0.301 -0.672,-0.672c0,-0.37 0.301,-0.671 0.672,-0.671Zm-13.869,5.004c0.371,-0 0.672,0.301 0.672,0.671c-0,0.371 -0.301,0.672 -0.672,0.672c-0.37,-0 -0.671,-0.301 -0.671,-0.672c0,-0.37 0.301,-0.671 0.671,-0.671Zm3.298,-6.514c0.37,-0 0.671,0.301 0.671,0.671c0,0.371 -0.301,0.672 -0.671,0.672c-0.371,-0 -0.672,-0.301 -0.672,-0.672c0,-0.37 0.301,-0.671 0.672,-0.671Zm6.925,10.722c0.37,0 0.671,0.301 0.671,0.672c0,0.37 -0.301,0.671 -0.671,0.671c-0.371,0 -0.672,-0.301 -0.672,-0.671c0,-0.371 0.301,-0.672 0.672,-0.672Zm-10.437,-23.581c0.371,0 0.671,0.301 0.671,0.672c0,0.37 -0.3,0.671 -0.671,0.671c-0.371,0 -0.671,-0.301 -0.671,-0.671c-0,-0.371 0.3,-0.672 0.671,-0.672Zm-7.863,1.144c0.37,0 0.671,0.301 0.671,0.671c0,0.371 -0.301,0.672 -0.671,0.672c-0.371,-0 -0.672,-0.301 -0.672,-0.672c0,-0.37 0.301,-0.671 0.672,-0.671Zm-0.215,-10.294c0.371,0 0.672,0.301 0.672,0.672c-0,0.37 -0.301,0.671 -0.672,0.671c-0.37,0 -0.671,-0.301 -0.671,-0.671c-0,-0.371 0.301,-0.672 0.671,-0.672Z" style="fill:#006100;"/><path d="M340.506,35.917c-0.262,0.262 -0.687,0.262 -0.95,0c-0.262,-0.262 -0.262,-0.687 0,-0.949c0.263,-0.262 0.688,-0.262 0.95,-0c0.262,0.262 0.262,0.687 0,0.949Zm-15.619,15.62c-0.262,0.262 -0.688,0.262 -0.95,-0c-0.262,-0.262 -0.262,-0.688 0,-0.95c0.262,-0.262 0.688,-0.262 0.95,-0c0.262,0.262 0.262,0.688 -0,0.95Zm10.21,10.21c-0.262,0.262 -0.687,0.262 -0.949,0c-0.262,-0.262 -0.262,-0.687 -0,-0.949c0.262,-0.262 0.687,-0.262 0.949,-0c0.262,0.262 0.262,0.687 0,0.949Zm6.268,-13.344c-0.262,0.262 -0.687,0.262 -0.949,-0c-0.262,-0.262 -0.262,-0.688 -0,-0.95c0.262,-0.262 0.687,-0.262 0.949,0c0.262,0.262 0.262,0.688 0,0.95Zm2.275,6.937c-0.262,0.262 -0.688,0.262 -0.95,0c-0.262,-0.262 -0.262,-0.687 0,-0.949c0.262,-0.262 0.688,-0.262 0.95,-0c0.262,0.262 0.262,0.687 -0,0.949Zm-12.479,-2.685c-0.262,0.262 -0.687,0.262 -0.95,-0c-0.262,-0.262 -0.262,-0.688 0,-0.95c0.263,-0.262 0.688,-0.262 0.95,0c0.262,0.262 0.262,0.688 0,0.95Zm24.054,9.294c-0.262,0.262 -0.687,0.262 -0.949,0c-0.262,-0.262 -0.262,-0.687 -0,-0.949c0.262,-0.262 0.687,-0.262 0.949,-0c0.262,0.262 0.262,0.687 0,0.949Zm4.752,-6.369c-0.262,0.262 -0.688,0.262 -0.95,0c-0.262,-0.262 -0.262,-0.687 0,-0.949c0.262,-0.262 0.688,-0.262 0.95,-0c0.262,0.262 0.262,0.687 -0,0.949Zm7.43,7.128c-0.262,0.262 -0.687,0.262 -0.949,-0c-0.262,-0.262 -0.262,-0.688 -0,-0.95c0.262,-0.262 0.687,-0.262 0.949,0c0.262,0.262 0.262,0.688 0,0.95Z" style="fill:#00ff56;"/><path d="M245.39,251.745c-0.262,0.262 -0.687,0.262 -0.949,0c-0.262,-0.262 -0.262,-0.687 -0,-0.949c0.262,-0.262 0.687,-0.262 0.949,-0c0.263,0.262 0.263,0.687 0,0.949Zm-15.619,15.62c-0.262,0.262 -0.687,0.262 -0.949,-0c-0.262,-0.263 -0.262,-0.688 -0,-0.95c0.262,-0.262 0.687,-0.262 0.949,-0c0.262,0.262 0.262,0.687 0,0.95Zm10.211,10.21c-0.262,0.262 -0.688,0.262 -0.95,0c-0.262,-0.262 -0.262,-0.687 0,-0.949c0.262,-0.262 0.688,-0.262 0.95,-0c0.262,0.262 0.262,0.687 -0,0.949Zm6.268,-13.344c-0.262,0.262 -0.688,0.262 -0.95,-0c-0.262,-0.262 -0.262,-0.688 0,-0.95c0.262,-0.262 0.688,-0.262 0.95,-0c0.262,0.262 0.262,0.688 -0,0.95Zm2.274,6.937c-0.262,0.262 -0.687,0.262 -0.949,0c-0.262,-0.262 -0.262,-0.687 -0,-0.949c0.262,-0.262 0.687,-0.262 0.949,-0c0.262,0.262 0.262,0.687 0,0.949Zm-12.478,-2.685c-0.263,0.262 -0.688,0.262 -0.95,-0c-0.262,-0.262 -0.262,-0.688 -0,-0.95c0.262,-0.262 0.687,-0.262 0.95,0c0.262,0.262 0.262,0.688 -0,0.95Zm24.054,9.294c-0.262,0.262 -0.688,0.262 -0.95,0c-0.262,-0.262 -0.262,-0.687 0,-0.949c0.262,-0.262 0.688,-0.262 0.95,-0c0.262,0.262 0.262,0.687 -0,0.949Zm4.751,-6.369c-0.262,0.262 -0.687,0.262 -0.949,0c-0.262,-0.262 -0.262,-0.687 -0,-0.949c0.262,-0.262 0.687,-0.262 0.949,-0c0.262,0.262 0.262,0.687 0,0.949Zm7.431,7.128c-0.262,0.262 -0.688,0.262 -0.95,-0c-0.262,-0.263 -0.262,-0.688 0,-0.95c0.262,-0.262 0.688,-0.262 0.95,-0c0.262,0.262 0.262,0.687 -0,0.95Z"/><path d="M54.487,239.342l22.204,-0l-3.782,-5.307l3.599,-9.028l-14.152,-14.457l3.782,12.81l-3.477,6.649l-8.052,-18.056l-0.244,-10.615" style="fill:none;stroke:#0f0;stroke-width:0.08px;stroke-dasharray:0.42,0.42,0,0,0,0;stroke-dashoffset:2.03;" class="flowline-1"/><path d="M62.635,230.046l10.309,4.087l-6.832,-10.797l10.579,1.525l-21.928,-13.298l7.628,-1.098l-8.026,-9.127" style="fill:none;stroke:#0f0;stroke-width:0.08px;stroke-dasharray:0.42,0.42,0,0,0,0;stroke-dashoffset:2.03;" class="flowline-1"/><path d="M54.365,239.342l18.64,-5.209" style="fill:none;stroke:#0f0;stroke-width:0.08px;stroke-dasharray:0.42,0.42,0,0,0,0;stroke-dashoffset:2.03;" class="flowline-1"/><path d="M62.452,229.802l-7.689,9.54l0,-27.596" style="fill:none;stroke:#0f0;stroke-width:0.08px;stroke-dasharray:0.42,0.42,0,0,0,0;stroke-dashoffset:2.03;" class="flowline-1"/></svg>